<svg width="222" height="60" viewBox="0 0 222 60" fill="none" xmlns="http://www.w3.org/2000/svg">
<path d="M123.85 45C123.41 45 123.04 44.85 122.74 44.55C122.44 44.25 122.29 43.88 122.29 43.44V23.13C122.29 22.67 122.44 22.3 122.74 22.02C123.04 21.72 123.41 21.57 123.85 21.57H137.41C137.87 21.57 138.24 21.71 138.52 21.99C138.8 22.25 138.94 22.6 138.94 23.04C138.94 23.46 138.8 23.8 138.52 24.06C138.24 24.32 137.87 24.45 137.41 24.45H125.41V31.74H134.02C134.48 31.74 134.85 31.88 135.13 32.16C135.41 32.42 135.55 32.76 135.55 33.18C135.55 33.6 135.41 33.95 135.13 34.23C134.85 34.49 134.48 34.62 134.02 34.62H125.41V42.12H137.41C137.87 42.12 138.24 42.25 138.52 42.51C138.8 42.77 138.94 43.11 138.94 43.53C138.94 43.97 138.8 44.33 138.52 44.61C138.24 44.87 137.87 45 137.41 45H123.85ZM144.376 45C143.936 45 143.566 44.86 143.266 44.58C142.986 44.28 142.846 43.91 142.846 43.47V30.12C142.846 29.66 142.986 29.29 143.266 29.01C143.566 28.73 143.936 28.59 144.376 28.59C144.836 28.59 145.206 28.73 145.486 29.01C145.766 29.29 145.906 29.66 145.906 30.12V43.47C145.906 43.91 145.766 44.28 145.486 44.58C145.206 44.86 144.836 45 144.376 45ZM144.376 25.92C143.836 25.92 143.366 25.73 142.966 25.35C142.586 24.95 142.396 24.48 142.396 23.94C142.396 23.4 142.586 22.94 142.966 22.56C143.366 22.16 143.836 21.96 144.376 21.96C144.916 21.96 145.376 22.16 145.756 22.56C146.156 22.94 146.356 23.4 146.356 23.94C146.356 24.48 146.156 24.95 145.756 25.35C145.376 25.73 144.916 25.92 144.376 25.92ZM152.619 34.74C152.619 33.54 152.909 32.47 153.489 31.53C154.089 30.57 154.889 29.81 155.889 29.25C156.889 28.69 157.989 28.41 159.189 28.41C160.389 28.41 161.279 28.61 161.859 29.01C162.459 29.39 162.689 29.85 162.549 30.39C162.489 30.67 162.369 30.89 162.189 31.05C162.029 31.19 161.839 31.28 161.619 31.32C161.399 31.36 161.159 31.35 160.899 31.29C159.619 31.03 158.469 31.01 157.449 31.23C156.429 31.45 155.619 31.86 155.019 32.46C154.439 33.06 154.149 33.82 154.149 34.74H152.619ZM152.649 45C152.169 45 151.799 44.88 151.539 44.64C151.279 44.38 151.149 44 151.149 43.5V30.09C151.149 29.61 151.279 29.24 151.539 28.98C151.799 28.72 152.169 28.59 152.649 28.59C153.149 28.59 153.519 28.72 153.759 28.98C154.019 29.22 154.149 29.59 154.149 30.09V43.5C154.149 43.98 154.019 44.35 153.759 44.61C153.519 44.87 153.149 45 152.649 45ZM166.818 39.03C166.378 39.03 166.008 38.89 165.708 38.61C165.428 38.31 165.288 37.94 165.288 37.5V23.1C165.288 22.64 165.428 22.27 165.708 21.99C166.008 21.71 166.378 21.57 166.818 21.57C167.278 21.57 167.648 21.71 167.928 21.99C168.208 22.27 168.348 22.64 168.348 23.1V37.5C168.348 37.94 168.208 38.31 167.928 38.61C167.648 38.89 167.278 39.03 166.818 39.03ZM179.148 45.03C178.708 45.03 178.338 44.89 178.038 44.61C177.758 44.31 177.618 43.94 177.618 43.5V36.12C177.618 34.98 177.408 34.05 176.988 33.33C176.568 32.61 175.998 32.08 175.278 31.74C174.578 31.38 173.768 31.2 172.848 31.2C172.008 31.2 171.248 31.37 170.568 31.71C169.888 32.05 169.348 32.51 168.948 33.09C168.548 33.65 168.348 34.3 168.348 35.04H166.458C166.458 33.78 166.758 32.66 167.358 31.68C167.978 30.68 168.818 29.89 169.878 29.31C170.938 28.73 172.128 28.44 173.448 28.44C174.828 28.44 176.058 28.74 177.138 29.34C178.238 29.92 179.098 30.78 179.718 31.92C180.358 33.06 180.678 34.46 180.678 36.12V43.5C180.678 43.94 180.528 44.31 180.228 44.61C179.948 44.89 179.588 45.03 179.148 45.03ZM166.818 45.03C166.378 45.03 166.008 44.89 165.708 44.61C165.428 44.31 165.288 43.94 165.288 43.5V30.12C165.288 29.66 165.428 29.29 165.708 29.01C166.008 28.73 166.378 28.59 166.818 28.59C167.278 28.59 167.648 28.73 167.928 29.01C168.208 29.29 168.348 29.66 168.348 30.12V43.5C168.348 43.94 168.208 44.31 167.928 44.61C167.648 44.89 167.278 45.03 166.818 45.03ZM192.217 45.15C190.837 45.15 189.597 44.86 188.497 44.28C187.417 43.68 186.557 42.81 185.917 41.67C185.297 40.53 184.987 39.13 184.987 37.47V30.09C184.987 29.65 185.127 29.29 185.407 29.01C185.707 28.71 186.077 28.56 186.517 28.56C186.957 28.56 187.317 28.71 187.597 29.01C187.897 29.29 188.047 29.65 188.047 30.09V37.47C188.047 38.59 188.257 39.52 188.677 40.26C189.097 40.98 189.667 41.52 190.387 41.88C191.107 42.22 191.917 42.39 192.817 42.39C193.677 42.39 194.437 42.22 195.097 41.88C195.777 41.54 196.317 41.08 196.717 40.5C197.117 39.92 197.317 39.27 197.317 38.55H199.207C199.207 39.79 198.897 40.91 198.277 41.91C197.677 42.91 196.847 43.7 195.787 44.28C194.747 44.86 193.557 45.15 192.217 45.15ZM198.847 45C198.407 45 198.037 44.86 197.737 44.58C197.457 44.28 197.317 43.91 197.317 43.47V30.09C197.317 29.63 197.457 29.26 197.737 28.98C198.037 28.7 198.407 28.56 198.847 28.56C199.307 28.56 199.677 28.7 199.957 28.98C200.237 29.26 200.377 29.63 200.377 30.09V43.47C200.377 43.91 200.237 44.28 199.957 44.58C199.677 44.86 199.307 45 198.847 45ZM213.566 45.12C212.006 45.12 210.606 44.76 209.366 44.04C208.126 43.3 207.146 42.3 206.426 41.04C205.706 39.78 205.336 38.36 205.316 36.78V23.1C205.316 22.64 205.456 22.27 205.736 21.99C206.036 21.71 206.406 21.57 206.846 21.57C207.306 21.57 207.676 21.71 207.956 21.99C208.236 22.27 208.376 22.64 208.376 23.1V31.2C209.076 30.36 209.916 29.7 210.896 29.22C211.896 28.72 212.986 28.47 214.166 28.47C215.626 28.47 216.936 28.84 218.096 29.58C219.256 30.3 220.166 31.29 220.826 32.55C221.506 33.79 221.846 35.2 221.846 36.78C221.846 38.36 221.476 39.78 220.736 41.04C220.016 42.3 219.036 43.3 217.796 44.04C216.556 44.76 215.146 45.12 213.566 45.12ZM213.566 42.42C214.586 42.42 215.496 42.18 216.296 41.7C217.096 41.2 217.726 40.52 218.186 39.66C218.666 38.8 218.906 37.84 218.906 36.78C218.906 35.7 218.666 34.74 218.186 33.9C217.726 33.06 217.096 32.4 216.296 31.92C215.496 31.42 214.586 31.17 213.566 31.17C212.566 31.17 211.656 31.42 210.836 31.92C210.036 32.4 209.406 33.06 208.946 33.9C208.486 34.74 208.256 35.7 208.256 36.78C208.256 37.84 208.486 38.8 208.946 39.66C209.406 40.52 210.036 41.2 210.836 41.7C211.656 42.18 212.566 42.42 213.566 42.42Z" fill="#05A6C2"/>
<path d="M4.33472 39.5913H31.5647L34.3245 29.9308L39.8441 49.2264L48.3535 1L57.3688 59.418L66.1542 23.0522L69.6499 49.5046L75.6755 30.209L78.6883 39.5913H102.974" stroke="#05A6C2" stroke-linecap="round" stroke-linejoin="round"/>
<path d="M3.6678 42.5504C5.14119 42.5504 6.33561 41.237 6.33561 39.6169C6.33561 37.9967 5.14119 36.6833 3.6678 36.6833C2.19442 36.6833 1 37.9967 1 39.6169C1 41.237 2.19442 42.5504 3.6678 42.5504Z" fill="#F8FAFA" stroke="#05A6C2" stroke-linecap="round" stroke-linejoin="round"/>
<path d="M114.129 34.6095C114.119 35.3618 113.974 36.1046 113.702 36.7948C113.429 37.485 113.035 38.1089 112.542 38.6305V38.6305L105.182 46.7989L97.8689 38.7317L105.274 30.5885C106.001 29.7974 106.924 29.2595 107.927 29.0423C108.931 28.8251 109.97 28.9382 110.915 29.3675C111.86 29.7967 112.669 30.523 113.241 31.4555C113.813 32.3879 114.121 33.485 114.129 34.6095Z" fill="#05A6C2" stroke="#5FB8C8" stroke-width="0.5" stroke-linecap="round" stroke-linejoin="round"/>
<path d="M112.542 38.7559L105.228 46.7978L97.915 38.7306C96.9938 37.7619 96.4251 36.4575 96.315 35.0612C96.205 33.6649 96.5612 32.2723 97.3171 31.1438C97.8014 30.4337 98.4301 29.858 99.1529 29.4628C99.8757 29.0676 100.673 28.8639 101.48 28.8678C102.16 28.8628 102.834 29.008 103.462 29.2947C104.09 29.5814 104.66 30.0038 105.137 30.5369L108.839 34.6337L112.542 38.7306V38.7559Z" fill="#05A6C2" stroke="#5FB8C8" stroke-width="0.5" stroke-linecap="round" stroke-linejoin="round"/>
<path d="M97.2939 34.5094C97.3211 33.9651 97.4462 33.4322 97.6619 32.9415C98.3289 31.3988 99.6628 30.5643 100.629 31.0701" stroke="#FAF9F5" stroke-width="0.5" stroke-linecap="round" stroke-linejoin="round"/>
</svg>
