<svg width="463" height="345" viewBox="0 0 463 345" fill="none" xmlns="http://www.w3.org/2000/svg">
<path d="M462.126 302.6H0V302.831H462.126V302.6Z" fill="#EBEBEB"/>
<path d="M415.821 317.471H385.21V317.702H415.821V317.471Z" fill="#EBEBEB"/>
<path d="M306.13 319.985H298.099V320.216H306.13V319.985Z" fill="#EBEBEB"/>
<path d="M384.285 308.894H366.549V309.125H384.285V308.894Z" fill="#EBEBEB"/>
<path d="M88.4043 310.447H48.4858V310.678H88.4043V310.447Z" fill="#EBEBEB"/>
<path d="M102.49 310.447H96.6396V310.678H102.49V310.447Z" fill="#EBEBEB"/>
<path d="M208.095 314.347H121.511V314.578H208.095V314.347Z" fill="#EBEBEB"/>
<path d="M219.047 261.378H40.5837C39.1856 261.376 37.8456 260.819 36.8579 259.829C35.8702 258.84 35.3154 257.499 35.3154 256.101V5.23126C35.3276 3.84121 35.8877 2.5121 36.8741 1.53261C37.8605 0.553126 39.1936 0.00238123 40.5837 0H219.047C220.447 0 221.789 0.556019 222.779 1.54574C223.769 2.53546 224.325 3.8778 224.325 5.27748V256.101C224.325 257.501 223.769 258.843 222.779 259.833C221.789 260.822 220.447 261.378 219.047 261.378V261.378ZM40.5837 0.184851C39.2469 0.187299 37.9657 0.720052 37.0213 1.66617C36.0769 2.61229 35.5465 3.89447 35.5465 5.23126V256.101C35.5465 257.438 36.0769 258.72 37.0213 259.666C37.9657 260.612 39.2469 261.145 40.5837 261.147H219.047C220.385 261.145 221.667 260.612 222.613 259.667C223.559 258.721 224.091 257.439 224.094 256.101V5.23126C224.091 3.89362 223.559 2.61147 222.613 1.66561C221.667 0.719752 220.385 0.187294 219.047 0.184851H40.5837Z" fill="#EBEBEB"/>
<path d="M418.972 261.378H240.499C239.1 261.376 237.759 260.819 236.77 259.83C235.781 258.841 235.224 257.5 235.222 256.101V5.23126C235.236 3.84037 235.798 2.51126 236.786 1.53203C237.774 0.552803 239.108 0.00235526 240.499 0H418.972C420.361 0.00481026 421.691 0.55663 422.676 1.53585C423.66 2.51508 424.219 3.84281 424.231 5.23126V256.101C424.231 257.497 423.678 258.837 422.692 259.826C421.706 260.815 420.369 261.373 418.972 261.378V261.378ZM240.499 0.184851C239.162 0.187294 237.879 0.719752 236.933 1.66561C235.988 2.61147 235.455 3.89362 235.453 5.23126V256.101C235.455 257.439 235.988 258.721 236.933 259.667C237.879 260.612 239.162 261.145 240.499 261.147H418.972C420.31 261.145 421.592 260.612 422.538 259.667C423.484 258.721 424.016 257.439 424.019 256.101V5.23126C424.016 3.89362 423.484 2.61147 422.538 1.66561C421.592 0.719752 420.31 0.187294 418.972 0.184851H240.499Z" fill="#EBEBEB"/>
<path d="M117.019 51.9707H61.8877V134.155H117.019V51.9707Z" fill="#E6E6E6"/>
<path d="M117.019 134.164H117.888L117.888 51.98H117.019L117.019 134.164Z" fill="#E0E0E0"/>
<path d="M113.904 131.04V55.0947H65.0114V131.04H113.904Z" fill="#FAFAFA"/>
<path d="M98.7024 86.8334C103.806 81.7297 103.806 73.4549 98.7024 68.3512C93.5986 63.2474 85.3239 63.2474 80.2201 68.3512C75.1164 73.4549 75.1164 81.7297 80.2201 86.8334C85.3239 91.9371 93.5986 91.9371 98.7024 86.8334Z" fill="#F0F0F0"/>
<path d="M105.577 98.2202H73.3301V101.52H105.577V98.2202Z" fill="#EBEBEB"/>
<path d="M105.577 107H73.3301V110.3H105.577V107Z" fill="#EBEBEB"/>
<path d="M105.577 115.772H73.3301V119.071H105.577V115.772Z" fill="#EBEBEB"/>
<path d="M186.302 63.8105H131.17V145.995H186.302V63.8105Z" fill="#E6E6E6"/>
<path d="M186.302 145.986H187.17V63.8011H186.302V145.986Z" fill="#E0E0E0"/>
<path d="M183.187 142.88V66.9346H134.294V142.88H183.187Z" fill="#FAFAFA"/>
<path d="M171.445 92.4153C173.103 85.3905 168.753 78.3518 161.728 76.6938C154.703 75.0358 147.664 79.3864 146.006 86.4112C144.348 93.4359 148.699 100.475 155.724 102.133C162.749 103.791 169.787 99.44 171.445 92.4153Z" fill="#F0F0F0"/>
<path d="M174.859 110.06H142.612V113.359H174.859V110.06Z" fill="#EBEBEB"/>
<path d="M174.859 118.831H142.612V122.131H174.859V118.831Z" fill="#EBEBEB"/>
<path d="M174.859 127.602H142.612V130.902H174.859V127.602Z" fill="#EBEBEB"/>
<path d="M380.727 180.229H139.784V182.799H380.727V180.229Z" fill="#EBEBEB"/>
<path d="M380.718 182.798H400.229V180.229H380.718V182.798Z" fill="#E0E0E0"/>
<path d="M380.718 182.798H143.083V302.6H380.718V182.798Z" fill="#F5F5F5"/>
<path d="M196.385 182.798H195.054V302.6H196.385V182.798Z" fill="#E6E6E6"/>
<path d="M259.234 207.162H257.903V302.6H259.234V207.162Z" fill="#E6E6E6"/>
<path d="M195.719 278.902V277.571H143.092V278.902H195.719Z" fill="#E6E6E6"/>
<path d="M195.719 255.204V253.874H143.092V255.204H195.719Z" fill="#E6E6E6"/>
<path d="M195.719 231.507V230.176H143.092V231.507H195.719Z" fill="#E6E6E6"/>
<path d="M380.727 207.827V206.496L143.092 206.496V207.827L380.727 207.827Z" fill="#E6E6E6"/>
<path d="M380.727 302.6H397.798V182.798H380.727V302.6Z" fill="#EBEBEB"/>
<path d="M384.738 20.0654H300.631V139.83H384.738V20.0654Z" fill="#FAFAFA"/>
<path d="M385.662 21.5073H299.707C299.518 21.5073 299.331 21.4699 299.157 21.3973C298.982 21.3248 298.824 21.2184 298.691 21.0844C298.558 20.9504 298.452 20.7914 298.381 20.6165C298.309 20.4416 298.273 20.2543 298.274 20.0654V20.0654C298.273 19.877 298.309 19.6901 298.381 19.5158C298.453 19.3414 298.558 19.183 298.691 19.0497C298.825 18.9164 298.983 18.811 299.157 18.7394C299.332 18.6678 299.519 18.6316 299.707 18.6328H385.662C385.851 18.6316 386.039 18.6678 386.214 18.7392C386.388 18.8107 386.547 18.916 386.681 19.0492C386.815 19.1823 386.922 19.3406 386.994 19.5151C387.067 19.6895 387.104 19.8765 387.104 20.0654V20.0654C387.104 20.4478 386.952 20.8146 386.682 21.085C386.412 21.3554 386.045 21.5073 385.662 21.5073Z" fill="#EBEBEB"/>
<path d="M385.662 141.272H299.707C299.518 141.272 299.331 141.234 299.157 141.162C298.982 141.089 298.824 140.983 298.691 140.849C298.558 140.715 298.452 140.556 298.381 140.381C298.309 140.206 298.273 140.019 298.274 139.83V139.83C298.273 139.641 298.309 139.455 298.381 139.28C298.453 139.106 298.558 138.947 298.691 138.814C298.825 138.681 298.983 138.575 299.157 138.504C299.332 138.432 299.519 138.396 299.707 138.397H385.662C385.851 138.396 386.039 138.432 386.214 138.504C386.388 138.575 386.547 138.681 386.681 138.814C386.815 138.947 386.922 139.105 386.994 139.28C387.067 139.454 387.104 139.641 387.104 139.83C387.104 140.212 386.952 140.579 386.682 140.849C386.412 141.12 386.045 141.272 385.662 141.272V141.272Z" fill="#EBEBEB"/>
<path d="M345.836 49.6416H339.533C334.127 49.6416 329.745 54.0238 329.745 59.4294V79.1345C329.745 84.5401 334.127 88.9223 339.533 88.9223H345.836C351.242 88.9223 355.624 84.5401 355.624 79.1345V59.4294C355.624 54.0238 351.242 49.6416 345.836 49.6416Z" fill="#F0F0F0"/>
<path d="M335.291 128.822C333.82 128.822 332.409 128.238 331.369 127.198C330.329 126.158 329.745 124.748 329.745 123.277V81.3805C329.745 79.9097 330.329 78.4992 331.369 77.4592C332.409 76.4192 333.82 75.835 335.291 75.835C336.761 75.835 338.172 76.4192 339.212 77.4592C340.252 78.4992 340.836 79.9097 340.836 81.3805V123.277C340.836 124.748 340.252 126.158 339.212 127.198C338.172 128.238 336.761 128.822 335.291 128.822V128.822Z" fill="#F0F0F0"/>
<path d="M324.477 54.4016H324.468C322.641 54.4016 321.159 55.883 321.159 57.7104V82.7392C321.159 84.5666 322.641 86.048 324.468 86.048H324.477C326.305 86.048 327.786 84.5666 327.786 82.7392V57.7104C327.786 55.883 326.305 54.4016 324.477 54.4016Z" fill="#F0F0F0"/>
<path d="M360.902 86.0572C360.024 86.0524 359.184 85.7009 358.565 85.0795C357.945 84.458 357.596 83.6168 357.593 82.7392V57.7197C357.596 56.842 357.945 56.0009 358.565 55.3794C359.184 54.7579 360.024 54.4065 360.902 54.4016V54.4016C361.781 54.4065 362.622 54.7576 363.243 55.3788C363.864 56 364.215 56.8412 364.22 57.7197V82.7392C364.215 83.6177 363.864 84.4588 363.243 85.08C362.622 85.7012 361.781 86.0524 360.902 86.0572V86.0572Z" fill="#F0F0F0"/>
<path d="M350.079 128.822C348.608 128.822 347.197 128.238 346.157 127.198C345.117 126.158 344.533 124.748 344.533 123.277V81.3805C344.533 79.9097 345.117 78.4992 346.157 77.4592C347.197 76.4192 348.608 75.835 350.079 75.835C351.549 75.835 352.96 76.4192 354 77.4592C355.04 78.4992 355.624 79.9097 355.624 81.3805V123.277C355.624 124.748 355.04 126.158 354 127.198C352.96 128.238 351.549 128.822 350.079 128.822V128.822Z" fill="#F0F0F0"/>
<path d="M348.457 43.5577C351.644 40.3705 351.644 35.2032 348.457 32.0161C345.27 28.8289 340.102 28.8289 336.915 32.0161C333.728 35.2032 333.728 40.3705 336.915 43.5577C340.102 46.7448 345.27 46.7448 348.457 43.5577Z" fill="#F0F0F0"/>
<path d="M352.288 156.818H313.571V180.229H352.288V156.818Z" fill="#F5F5F5"/>
<path d="M352.288 180.229H361.826V156.818H352.288V180.229Z" fill="#EBEBEB"/>
<path d="M340.328 166.282H335.162V161.125H330.697V166.282H325.54V170.755H330.697V175.913H335.162V170.755H340.328V166.282Z" fill="white"/>
<path d="M279.669 180.229H275.972V138.813C275.972 136.979 275.611 135.163 274.909 133.469C274.207 131.775 273.179 130.235 271.882 128.938C270.585 127.641 269.045 126.613 267.351 125.911C265.657 125.209 263.841 124.848 262.007 124.848C260.173 124.848 258.357 125.209 256.662 125.911C254.968 126.613 253.428 127.641 252.132 128.938C250.835 130.235 249.806 131.775 249.104 133.469C248.402 135.163 248.041 136.979 248.041 138.813H244.344C244.344 134.129 246.205 129.636 249.517 126.324C252.83 123.012 257.322 121.151 262.007 121.151C266.691 121.151 271.184 123.012 274.496 126.324C277.808 129.636 279.669 134.129 279.669 138.813V180.229Z" fill="#EBEBEB"/>
<path d="M286.555 174.166H282.858V180.229H286.555V174.166Z" fill="#EBEBEB"/>
<path d="M168.981 178.076H165.284V180.229H168.981V178.076Z" fill="#EBEBEB"/>
<path d="M162.428 178.076H158.731V180.229H162.428V178.076Z" fill="#EBEBEB"/>
<path d="M127.371 235.009H79.2456V302.6H127.371V235.009Z" fill="#F5F5F5"/>
<path d="M125.495 233.318H81.1128V235.019H125.495V233.318Z" fill="#E6E6E6"/>
<path d="M94.4865 218.068H112.121C116.166 218.068 120.045 219.675 122.905 222.535C125.765 225.394 127.371 229.273 127.371 233.318H79.2456C79.2444 231.316 79.6377 229.333 80.4031 227.483C81.1685 225.633 82.2909 223.951 83.7063 222.535C85.1217 221.119 86.8022 219.995 88.6519 219.229C90.5017 218.462 92.4843 218.068 94.4865 218.068V218.068Z" fill="#F5F5F5"/>
<path d="M85.6409 295.187H80.5483C78.5873 295.187 76.7066 295.966 75.32 297.353C73.9333 298.74 73.1543 300.62 73.1543 302.581H93.0812C93.0812 301.607 92.8884 300.641 92.5139 299.741C92.1395 298.841 91.5907 298.024 90.8992 297.337C90.2077 296.649 89.3871 296.106 88.4847 295.737C87.5823 295.368 86.6158 295.181 85.6409 295.187Z" fill="#E6E6E6"/>
<path d="M231.063 344.339C330.034 344.339 410.266 339.655 410.266 333.877C410.266 328.099 330.034 323.414 231.063 323.414C132.092 323.414 51.8599 328.099 51.8599 333.877C51.8599 339.655 132.092 344.339 231.063 344.339Z" fill="#F5F5F5"/>
<path d="M177.188 84.2267L172.992 79.0879L167.132 82.7849C167.132 82.7849 169.812 85.6501 173.066 89.6521L177.188 84.2267Z" fill="#B55B52"/>
<path d="M229.51 84.6427C229.27 85.1602 229.104 85.4745 228.9 85.8719L228.318 86.981C227.921 87.7112 227.532 88.4321 227.117 89.1438C226.303 90.5609 225.45 91.9535 224.556 93.3214C222.76 96.1222 220.778 98.7993 218.623 101.335C216.339 104.04 213.766 106.489 210.951 108.636C209.394 109.787 207.736 110.796 205.997 111.649L204.602 112.269L203.132 112.814C202.642 112.989 202.116 113.119 201.598 113.267L201.21 113.378L200.655 113.498C200.249 113.581 199.851 113.636 199.463 113.683C198.049 113.821 196.622 113.746 195.23 113.461C194.089 113.237 192.972 112.906 191.893 112.472C190.094 111.735 188.373 110.822 186.754 109.745C183.953 107.857 181.316 105.736 178.871 103.405C176.495 101.196 174.296 98.9131 172.188 96.584C171.135 95.4102 170.09 94.2456 169.073 93.0441C168.057 91.8426 167.086 90.6873 166.033 89.3471L176.255 81.417C177.05 82.4244 178.002 83.5798 178.917 84.6427C179.832 85.7055 180.765 86.7962 181.745 87.8406C183.686 89.9201 185.673 91.9258 187.716 93.765C189.64 95.532 191.715 97.1277 193.917 98.5342C194.793 99.0947 195.722 99.5683 196.69 99.9483C197.485 100.253 198.077 100.244 197.901 100.198H197.808C197.808 100.198 197.735 100.198 197.808 100.198L197.966 100.152C198.169 100.068 198.363 100.022 198.576 99.939L199.195 99.671L199.842 99.3475C200.766 98.8355 201.644 98.2449 202.467 97.5822C204.356 96.0105 206.058 94.2274 207.541 92.2677C209.162 90.1572 210.635 87.9368 211.95 85.6224C212.627 84.4393 213.265 83.2378 213.863 82.0178C214.168 81.417 214.464 80.807 214.787 80.1693L215.194 79.245C215.314 78.9678 215.471 78.6073 215.536 78.4409L229.51 84.6427Z" fill="#407BFF"/>
<path opacity="0.8" d="M229.51 84.6427C229.27 85.1602 229.104 85.4745 228.9 85.8719L228.318 86.981C227.921 87.7112 227.532 88.4321 227.117 89.1438C226.303 90.5609 225.45 91.9535 224.556 93.3214C222.76 96.1222 220.778 98.7993 218.623 101.335C216.339 104.04 213.766 106.489 210.951 108.636C209.394 109.787 207.736 110.796 205.997 111.649L204.602 112.269L203.132 112.814C202.642 112.989 202.116 113.119 201.598 113.267L201.21 113.378L200.655 113.498C200.249 113.581 199.851 113.636 199.463 113.683C198.049 113.821 196.622 113.746 195.23 113.461C194.089 113.237 192.972 112.906 191.893 112.472C190.094 111.735 188.373 110.822 186.754 109.745C183.953 107.857 181.316 105.736 178.871 103.405C176.495 101.196 174.296 98.9131 172.188 96.584C171.135 95.4102 170.09 94.2456 169.073 93.0441C168.057 91.8426 167.086 90.6873 166.033 89.3471L176.255 81.417C177.05 82.4244 178.002 83.5798 178.917 84.6427C179.832 85.7055 180.765 86.7962 181.745 87.8406C183.686 89.9201 185.673 91.9258 187.716 93.765C189.64 95.532 191.715 97.1277 193.917 98.5342C194.793 99.0947 195.722 99.5683 196.69 99.9483C197.485 100.253 198.077 100.244 197.901 100.198H197.808C197.808 100.198 197.735 100.198 197.808 100.198L197.966 100.152C198.169 100.068 198.363 100.022 198.576 99.939L199.195 99.671L199.842 99.3475C200.766 98.8355 201.644 98.2449 202.467 97.5822C204.356 96.0105 206.058 94.2274 207.541 92.2677C209.162 90.1572 210.635 87.9368 211.95 85.6224C212.627 84.4393 213.265 83.2378 213.863 82.0178C214.168 81.417 214.464 80.807 214.787 80.1693L215.194 79.245C215.314 78.9678 215.471 78.6073 215.536 78.4409L229.51 84.6427Z" fill="white"/>
<path d="M227.458 232.356H257.293L245.981 175.811H231.368L227.458 232.356Z" fill="#407BFF"/>
<path opacity="0.6" d="M227.458 232.356H257.293L245.981 175.811H231.368L227.458 232.356Z" fill="white"/>
<path d="M233.853 325.429H226.247L225.923 307.822H233.53L233.853 325.429Z" fill="#B55B52"/>
<path d="M275.972 325.429H268.365L264.973 307.822H272.58L275.972 325.429Z" fill="#B55B52"/>
<path d="M267.849 324.551H276.352C276.502 324.55 276.647 324.601 276.763 324.695C276.88 324.79 276.96 324.922 276.989 325.068L278.32 331.825C278.35 331.991 278.343 332.162 278.299 332.326C278.255 332.489 278.176 332.641 278.066 332.77C277.956 332.899 277.82 333.002 277.665 333.072C277.511 333.142 277.344 333.177 277.174 333.174C274.198 333.128 272.756 332.952 268.995 332.952C266.684 332.952 261.915 333.192 258.726 333.192C255.538 333.192 255.196 330.041 256.508 329.754C262.396 328.47 264.651 326.704 266.564 325.013C266.922 324.709 267.379 324.545 267.849 324.551V324.551Z" fill="#263238"/>
<path d="M226.321 324.551H234.639C234.788 324.55 234.932 324.602 235.047 324.696C235.162 324.791 235.24 324.922 235.268 325.068L236.608 331.806C236.639 331.972 236.634 332.143 236.592 332.306C236.549 332.469 236.472 332.621 236.364 332.751C236.256 332.881 236.121 332.985 235.968 333.057C235.816 333.128 235.649 333.165 235.481 333.165C232.486 333.109 228.16 332.934 224.39 332.934C219.99 332.934 219.63 333.174 214.472 333.174C211.348 333.174 210.563 330.022 211.875 329.736C217.855 328.433 219.269 328.294 224.482 325.115C225.032 324.763 225.668 324.568 226.321 324.551V324.551Z" fill="#263238"/>
<path d="M170.155 77.332L165.238 77.2581L164.313 83.5984C167.444 84.1706 170.673 83.8503 173.63 82.6742L173.547 80.6131C173.509 79.7359 173.136 78.9066 172.505 78.2962C171.874 77.6858 171.033 77.3406 170.155 77.332V77.332Z" fill="#B55B52"/>
<path d="M157.548 77.5538L158.5 81.5558L164.295 83.5984L165.238 77.2581L157.548 77.5538Z" fill="#B55B52"/>
<path opacity="0.2" d="M225.923 307.831L226.09 316.907H233.696L233.53 307.831H225.923Z" fill="black"/>
<path opacity="0.2" d="M272.58 307.831H264.973L266.729 316.907H274.336L272.58 307.831Z" fill="black"/>
<path d="M216.949 79.92C214.842 87.9794 211.062 108.313 215.193 140.653H255.86C256.257 134.987 253.67 109.357 258.245 82.6742C258.437 81.5879 258.405 80.4736 258.151 79.4001C257.896 78.3266 257.424 77.3166 256.764 76.4325C256.105 75.5483 255.271 74.8087 254.314 74.2592C253.357 73.7097 252.298 73.3621 251.202 73.2376C249.621 73.062 247.948 72.9141 246.294 72.8309C240.61 72.6729 234.922 72.8581 229.26 73.3855C226.845 73.616 224.455 74.0552 222.116 74.6979C220.871 75.0359 219.737 75.6969 218.83 76.6139C217.923 77.531 217.274 78.6715 216.949 79.92V79.92Z" fill="white"/>
<path d="M244.428 56.6653C243.198 62.2108 242.487 69.115 246.276 72.8305C246.276 72.8305 243.901 78.4684 233.568 78.4684C224.122 78.4684 228.946 72.8305 228.946 72.8305C235.185 71.3516 235.056 63.6804 234.076 59.3549L244.428 56.6653Z" fill="#B55B52"/>
<path d="M233.096 77.7014L230.859 80.1691C230.78 80.2545 230.725 80.3597 230.701 80.4736C230.676 80.5874 230.683 80.7058 230.721 80.8161L231.432 82.9974C231.472 83.1197 231.548 83.2269 231.65 83.3046C231.753 83.3823 231.877 83.4267 232.005 83.4317L234.418 83.5519C234.532 83.5568 234.645 83.5322 234.747 83.4804C234.849 83.4286 234.936 83.3513 235 83.2561L236.442 81.1396C236.529 81.0253 236.576 80.8857 236.576 80.7422C236.576 80.5986 236.529 80.459 236.442 80.3447L234.113 77.6921C234.051 77.6158 233.974 77.5543 233.885 77.5124C233.797 77.4704 233.7 77.4491 233.602 77.45C233.504 77.4509 233.408 77.474 233.32 77.5175C233.232 77.561 233.156 77.6239 233.096 77.7014V77.7014Z" fill="#407BFF"/>
<path d="M232.532 83.4133C232.532 83.4133 228.835 110.623 228.752 115.365C228.801 119.842 229.504 124.289 230.841 128.563C230.841 128.563 233.382 123.757 233.817 115.161C234.251 106.566 233.724 88.2379 233.919 83.4133H232.532Z" fill="#407BFF"/>
<path opacity="0.2" d="M234.131 59.3641C234.714 61.8966 234.991 65.5751 233.863 68.4957C234.603 68.8192 237.653 67.6454 238.919 66.8413C241.738 65.0482 242.829 63.2922 243.864 59.549C244.03 58.56 244.215 57.5988 244.427 56.6653L234.131 59.3641Z" fill="black"/>
<path d="M224.482 53.9575C224.822 54.8222 225.332 55.6102 225.981 56.2752C226.63 56.9402 227.406 57.4689 228.262 57.8301C230.563 58.7544 232.051 56.7395 231.682 54.3827C231.358 52.2661 229.759 49.2161 227.319 49.2808C226.782 49.3112 226.259 49.472 225.798 49.7493C225.336 50.0266 224.949 50.4121 224.67 50.8724C224.39 51.3328 224.227 51.8543 224.195 52.3918C224.162 52.9292 224.26 53.4666 224.482 53.9575V53.9575Z" fill="#B55B52"/>
<path opacity="0.2" d="M224.482 53.9575C224.822 54.8222 225.332 55.6102 225.981 56.2752C226.63 56.9402 227.406 57.4689 228.262 57.8301C230.563 58.7544 232.051 56.7395 231.682 54.3827C231.358 52.2661 229.759 49.2161 227.319 49.2808C226.782 49.3112 226.259 49.472 225.798 49.7493C225.336 50.0266 224.949 50.4121 224.67 50.8724C224.39 51.3328 224.227 51.8543 224.195 52.3918C224.162 52.9292 224.26 53.4666 224.482 53.9575V53.9575Z" fill="black"/>
<path d="M233.835 45.63C233.401 48.8834 231.368 51.3049 229.297 51.0277C227.227 50.7504 225.905 47.8852 226.349 44.6226C226.793 41.36 228.817 38.9384 230.887 39.2157C232.957 39.493 234.298 42.3674 233.835 45.63Z" fill="#263238"/>
<path d="M248.069 49.4564C246.22 56.8504 245.499 61.2499 241.054 64.4478C234.381 69.2631 225.924 64.3091 225.573 56.5639C225.249 49.5951 228.345 38.6889 236.109 36.9328C237.811 36.539 239.587 36.5951 241.261 37.0957C242.935 37.5962 244.45 38.5239 245.657 39.7876C246.863 41.0512 247.72 42.6072 248.143 44.3025C248.566 45.9978 248.541 47.774 248.069 49.4564V49.4564Z" fill="#B55B52"/>
<path d="M235.795 34.354C231.367 35.2782 226.469 38.8921 230.693 41.5262C234.917 44.1603 244.427 44.567 244.427 44.567C244.427 44.567 241.285 51.961 245.582 55.7782C247.015 55.0665 243.956 61.5178 243.956 61.5178C245.53 60.9756 246.847 59.8692 247.653 58.4123C250.222 57.7561 257.819 45.4727 252.755 41.9976C251.793 34.8346 241.738 33.0693 235.795 34.354Z" fill="#263238"/>
<path d="M246.479 53.9113H246.378L239.723 50.8612C239.69 50.8518 239.659 50.8353 239.633 50.813C239.607 50.7906 239.586 50.7629 239.571 50.7317C239.557 50.7005 239.549 50.6665 239.549 50.6321C239.549 50.5977 239.556 50.5636 239.57 50.5322C239.584 50.5007 239.604 50.4727 239.63 50.4499C239.656 50.4272 239.686 50.4102 239.719 50.4002C239.752 50.3902 239.787 50.3874 239.821 50.392C239.855 50.3966 239.888 50.4085 239.917 50.4268L246.581 53.4769C246.638 53.5031 246.683 53.5507 246.705 53.6095C246.728 53.6682 246.726 53.7334 246.701 53.7911C246.679 53.8297 246.646 53.8614 246.607 53.8827C246.568 53.9039 246.524 53.9138 246.479 53.9113V53.9113Z" fill="white"/>
<path d="M249.853 58.2275C248.575 59.6431 246.793 60.5022 244.89 60.6213C242.385 60.7507 241.738 58.3569 242.939 56.2681C244.021 54.4196 246.636 52.0535 248.892 52.9131C251.147 53.7726 251.396 56.4807 249.853 58.2275Z" fill="#B55B52"/>
<path d="M215.194 140.652C215.194 140.652 212.754 197.494 213.012 220.683C213.28 244.797 223.309 315.142 223.309 315.142H236.183C236.183 315.142 235.028 246.202 236.183 222.522C237.44 196.699 241.932 140.652 241.932 140.652H215.194Z" fill="#407BFF"/>
<path d="M236.784 309.458C236.848 309.458 237.024 315.41 237.024 315.41H222.18L221.33 308.94L236.784 309.458Z" fill="#263238"/>
<path opacity="0.2" d="M232.615 155.699C232.172 183.907 233.447 201.043 236.599 214.851C237.375 201.394 238.641 183.602 239.76 168.824L232.615 155.699Z" fill="black"/>
<path d="M229.621 140.652C229.621 140.652 236.83 198.751 241.026 220.517C245.648 244.353 263.208 315.142 263.208 315.142H277.137C277.137 315.142 266.148 246.285 263.763 222.717C261.184 197.106 255.842 140.689 255.842 140.689L229.621 140.652Z" fill="#407BFF"/>
<path d="M276.804 309.772C276.868 309.772 277.839 315.41 277.839 315.41H262.533L260.851 309.199L276.804 309.772Z" fill="#263238"/>
<path d="M236.507 49.6505C236.387 50.2605 235.98 50.6949 235.583 50.6302C235.185 50.5655 234.963 50.0202 235.074 49.4102C235.185 48.8002 235.601 48.3658 235.999 48.4305C236.396 48.4952 236.609 49.0405 236.507 49.6505Z" fill="#263238"/>
<path d="M229.048 47.8946C228.937 48.5046 228.521 48.939 228.124 48.8743C227.726 48.8096 227.505 48.2643 227.615 47.6543C227.726 47.0443 228.142 46.6099 228.54 46.6746C228.937 46.7393 229.159 47.2846 229.048 47.8946Z" fill="#263238"/>
<path d="M232.153 49.4194C230.888 51.0167 229.415 52.4372 227.772 53.6433C228.083 54.048 228.48 54.3789 228.934 54.6122C229.387 54.8455 229.887 54.9754 230.397 54.9927L232.153 49.4194Z" fill="#A02724"/>
<path d="M232.172 56.8876C232.126 56.8766 232.086 56.8484 232.06 56.8089C232.035 56.7694 232.025 56.7215 232.033 56.675C232.042 56.6275 232.07 56.5853 232.109 56.5577C232.149 56.53 232.198 56.5191 232.246 56.5272C232.996 56.6648 233.768 56.6262 234.501 56.4145C235.234 56.2028 235.908 55.8237 236.47 55.3072C236.501 55.2728 236.546 55.2526 236.592 55.2509C236.639 55.2491 236.685 55.266 236.719 55.2979C236.753 55.3298 236.774 55.374 236.775 55.4208C236.777 55.4676 236.76 55.5131 236.728 55.5475C236.13 56.1164 235.404 56.5347 234.612 56.7677C233.82 57.0008 232.983 57.0419 232.172 56.8876V56.8876Z" fill="#263238"/>
<path d="M240.121 47.6725C240.066 47.6594 240.016 47.6332 239.974 47.5961C239.932 47.559 239.9 47.5123 239.88 47.4599C239.734 47.0424 239.49 46.6659 239.168 46.362C238.847 46.0581 238.457 45.8356 238.032 45.7131C237.939 45.6931 237.858 45.6372 237.806 45.5576C237.754 45.4779 237.735 45.381 237.754 45.2879C237.775 45.1944 237.83 45.1124 237.909 45.059C237.989 45.0055 238.086 44.9849 238.18 45.0014C238.731 45.1369 239.24 45.4071 239.661 45.7878C240.082 46.1685 240.402 46.6478 240.592 47.1826C240.623 47.2735 240.618 47.3727 240.579 47.4602C240.539 47.5477 240.468 47.6169 240.379 47.654C240.298 47.6912 240.206 47.6978 240.121 47.6725V47.6725Z" fill="#263238"/>
<path d="M227.135 44.9832C227.083 44.9719 227.035 44.9463 226.996 44.9092C226.931 44.8406 226.895 44.7496 226.895 44.6551C226.895 44.5605 226.931 44.4696 226.996 44.4009C227.354 43.9507 227.812 43.5901 228.333 43.3479C228.855 43.1056 229.425 42.9883 230 43.0053C230.046 43.011 230.091 43.0258 230.132 43.0489C230.172 43.0721 230.207 43.1031 230.236 43.14C230.264 43.177 230.285 43.2193 230.297 43.2644C230.309 43.3095 230.312 43.3565 230.305 43.4027C230.3 43.4501 230.286 43.4962 230.264 43.5382C230.241 43.5802 230.211 43.6173 230.174 43.6474C230.137 43.6775 230.094 43.6999 230.049 43.7134C230.003 43.727 229.955 43.7313 229.908 43.7262V43.7262C229.453 43.7164 229.002 43.8143 228.593 44.0119C228.183 44.2095 227.826 44.5011 227.551 44.863C227.502 44.9231 227.436 44.9669 227.362 44.9883C227.287 45.0098 227.208 45.008 227.135 44.9832V44.9832Z" fill="#263238"/>
<path d="M236.368 53.9761C236.185 53.9742 236.003 53.9588 235.823 53.9299C235.389 53.8476 234.977 53.6802 234.609 53.4375C234.241 53.1947 233.925 52.8815 233.678 52.5158C233.363 52.0456 233.144 51.5178 233.033 50.9628C232.922 50.4077 232.921 49.8362 233.031 49.2809C233.157 48.2698 233.673 47.3478 234.469 46.7122C235.265 46.0766 236.278 45.7778 237.292 45.8797C238.166 46.0489 238.937 46.5574 239.436 47.2938C240.069 48.245 240.302 49.4072 240.083 50.5287V50.5287C239.957 51.4438 239.518 52.2872 238.841 52.9155C238.164 53.5439 237.29 53.9186 236.368 53.9761V53.9761ZM236.738 46.3141C235.929 46.3713 235.166 46.7062 234.576 47.2621C233.987 47.8179 233.607 48.5606 233.503 49.3641C233.305 50.3621 233.507 51.3979 234.067 52.2478C234.28 52.5615 234.553 52.8301 234.87 53.0379C235.187 53.2457 235.542 53.3886 235.915 53.4585C236.803 53.5391 237.687 53.2688 238.378 52.7057C239.069 52.1425 239.512 51.3312 239.612 50.4455C239.808 49.4463 239.602 48.4103 239.039 47.5618C238.827 47.2473 238.554 46.9783 238.237 46.7704C237.919 46.5625 237.564 46.42 237.19 46.351C237.041 46.326 236.889 46.3136 236.738 46.3141V46.3141Z" fill="white"/>
<path d="M233.263 49.5582C233.224 49.5578 233.187 49.5484 233.153 49.5307C233.12 49.513 233.09 49.4876 233.068 49.4565C232.918 49.1534 232.663 48.9156 232.349 48.7879C232.036 48.6603 231.687 48.6515 231.368 48.7633C231.309 48.7854 231.244 48.7844 231.185 48.7604C231.127 48.7364 231.08 48.6912 231.054 48.6339C231.029 48.5762 231.027 48.511 231.05 48.4522C231.072 48.3935 231.117 48.3459 231.174 48.3197C231.597 48.1694 232.059 48.1743 232.479 48.3334C232.899 48.4926 233.249 48.7956 233.466 49.1885C233.483 49.2151 233.495 49.2449 233.5 49.2761C233.506 49.3073 233.505 49.3393 233.498 49.3702C233.491 49.4011 233.478 49.4304 233.46 49.4563C233.442 49.4822 233.419 49.5043 233.392 49.5212C233.354 49.5472 233.309 49.5602 233.263 49.5582Z" fill="white"/>
<path d="M227.8 52.026C227.614 52.0245 227.429 52.0091 227.246 51.9797C226.813 51.8974 226.4 51.73 226.032 51.4873C225.664 51.2446 225.348 50.9313 225.101 50.5656C224.469 49.6144 224.236 48.4522 224.454 47.3308C224.58 46.3203 225.096 45.3992 225.892 44.7651C226.689 44.131 227.702 43.8343 228.715 43.9388C229.148 44.0175 229.561 44.1825 229.93 44.4238C230.298 44.6651 230.614 44.9779 230.859 45.3436C231.493 46.2981 231.725 47.4634 231.506 48.5877V48.5877C231.38 49.5005 230.942 50.3415 230.267 50.9681C229.591 51.5948 228.72 51.9685 227.8 52.026V52.026ZM228.161 44.3639C227.352 44.4211 226.589 44.756 225.999 45.3119C225.41 45.8678 225.03 46.6104 224.926 47.4139C224.827 47.9087 224.827 48.418 224.925 48.9129C225.023 49.4077 225.218 49.8783 225.499 50.2976C225.711 50.6121 225.984 50.8811 226.301 51.089C226.619 51.2969 226.974 51.4395 227.347 51.5084C228.235 51.5889 229.119 51.3187 229.81 50.7555C230.501 50.1924 230.944 49.3811 231.044 48.4953C231.243 47.4961 231.037 46.459 230.471 45.6117C230.04 44.9794 229.375 44.544 228.623 44.4009C228.47 44.3753 228.315 44.363 228.161 44.3639V44.3639Z" fill="white"/>
<path d="M265.26 325.872C264.748 325.913 264.236 325.78 263.809 325.493C263.681 325.378 263.583 325.235 263.522 325.074C263.461 324.913 263.439 324.74 263.458 324.569C263.463 324.462 263.495 324.358 263.551 324.268C263.608 324.177 263.687 324.103 263.781 324.052C264.622 323.626 267.044 325.133 267.321 325.299C267.352 325.318 267.376 325.346 267.389 325.38C267.402 325.413 267.404 325.45 267.395 325.484C267.39 325.52 267.374 325.554 267.349 325.58C267.325 325.607 267.292 325.625 267.257 325.632C266.602 325.787 265.933 325.868 265.26 325.872V325.872ZM264.17 324.301C264.09 324.3 264.012 324.316 263.939 324.347C263.901 324.368 263.869 324.399 263.848 324.437C263.827 324.474 263.817 324.517 263.818 324.56C263.799 324.68 263.81 324.803 263.851 324.917C263.891 325.032 263.959 325.135 264.049 325.216C264.456 325.567 265.445 325.614 266.748 325.355C265.977 324.842 265.114 324.484 264.207 324.301H264.17Z" fill="#407BFF"/>
<path d="M267.257 325.614C267.23 325.623 267.2 325.623 267.173 325.614C266.397 325.189 264.909 323.525 265.094 322.675C265.125 322.542 265.199 322.424 265.304 322.339C265.41 322.254 265.54 322.206 265.676 322.203C265.813 322.185 265.952 322.197 266.084 322.237C266.217 322.277 266.339 322.344 266.443 322.434C267.303 323.155 267.432 325.346 267.441 325.447C267.436 325.495 267.415 325.54 267.382 325.575C267.348 325.61 267.304 325.634 267.257 325.641V325.614ZM265.796 322.564H265.713C265.482 322.564 265.454 322.693 265.445 322.739C265.343 323.238 266.277 324.505 267.044 325.096C267.011 324.234 266.718 323.403 266.203 322.712C266.09 322.615 265.945 322.562 265.796 322.564Z" fill="#407BFF"/>
<path d="M223.133 325.881C222.481 325.943 221.827 325.777 221.284 325.41C221.162 325.302 221.07 325.165 221.015 325.011C220.96 324.858 220.944 324.693 220.97 324.532C220.976 324.434 221.007 324.339 221.061 324.256C221.114 324.174 221.188 324.106 221.275 324.061C222.199 323.534 225.231 325.087 225.573 325.271C225.607 325.288 225.635 325.315 225.653 325.349C225.67 325.383 225.676 325.421 225.67 325.459C225.664 325.496 225.646 325.531 225.618 325.557C225.59 325.583 225.555 325.6 225.517 325.604C224.733 325.77 223.935 325.863 223.133 325.881V325.881ZM221.82 324.301C221.703 324.299 221.587 324.321 221.478 324.366C221.444 324.385 221.416 324.414 221.397 324.448C221.377 324.482 221.367 324.52 221.367 324.56C221.348 324.666 221.357 324.776 221.393 324.878C221.428 324.98 221.49 325.071 221.571 325.142C222.024 325.558 223.271 325.632 224.963 325.345C223.982 324.821 222.919 324.468 221.82 324.301V324.301Z" fill="#407BFF"/>
<path d="M225.518 325.613H225.444C224.519 325.198 222.763 323.562 222.921 322.693C222.921 322.499 223.105 322.24 223.604 322.194C223.781 322.172 223.961 322.188 224.132 322.241C224.302 322.293 224.459 322.381 224.593 322.499C225.518 323.294 225.693 325.345 225.703 325.429C225.703 325.46 225.697 325.491 225.684 325.52C225.671 325.549 225.652 325.574 225.629 325.595C225.593 325.609 225.556 325.615 225.518 325.613V325.613ZM223.715 322.563H223.604C223.281 322.563 223.253 322.721 223.244 322.767C223.152 323.275 224.353 324.569 225.277 325.133C225.22 324.273 224.897 323.453 224.353 322.785C224.176 322.633 223.948 322.554 223.715 322.563Z" fill="#407BFF"/>
<path d="M246.775 72.3223L255.555 73.3759C257.011 73.5488 258.349 74.2622 259.305 75.3748C260.26 76.4874 260.762 77.9181 260.713 79.3835C260.269 93.0717 258.457 111.88 259.908 140.652C260.639 155.163 270.778 233.955 270.778 233.955L250.805 237.458C241.267 207.18 234.583 176.076 230.841 144.553C229.389 130.853 229.339 117.041 230.693 103.331L246.775 72.3223Z" fill="#407BFF"/>
<path opacity="0.8" d="M246.775 72.3223L255.555 73.3759C257.011 73.5488 258.349 74.2622 259.305 75.3748C260.26 76.4874 260.762 77.9181 260.713 79.3835C260.269 93.0717 258.457 111.88 259.908 140.652C260.639 155.163 270.778 233.955 270.778 233.955L250.805 237.458C241.267 207.18 234.583 176.076 230.841 144.553C229.389 130.853 229.339 117.041 230.693 103.331L246.775 72.3223Z" fill="white"/>
<path opacity="0.2" d="M253.947 89.7908C253.947 91.8426 255.518 102.287 259.41 109.496C259.521 104.579 259.696 100.087 259.899 95.9648L253.947 89.7908Z" fill="#407BFF"/>
<path opacity="0.2" d="M216.154 87.9607C215.026 90.1142 211.773 99.2458 210.119 109.218C210.877 108.692 211.597 108.146 212.291 107.592C214.846 105.47 217.192 103.109 219.296 100.54L219.703 100.041L216.154 87.9607Z" fill="#407BFF"/>
<path d="M228.225 73.2188L223.04 73.8472C220.554 74.153 218.259 75.3339 216.566 77.1783C214.872 79.0227 213.891 81.41 213.797 83.9123C213.206 99.2734 212.004 129.959 211.348 140.652C210.424 155.154 211.08 233.955 211.08 233.955L223.53 236.137C223.53 236.137 226.691 192.752 230.877 144.552C231.951 130.247 232.207 115.891 231.645 101.556L228.225 73.2188Z" fill="#407BFF"/>
<path opacity="0.8" d="M228.225 73.2188L223.04 73.8472C220.554 74.153 218.259 75.3339 216.566 77.1783C214.872 79.0227 213.891 81.41 213.797 83.9123C213.206 99.2734 212.004 129.959 211.348 140.652C210.424 155.154 211.08 233.955 211.08 233.955L223.53 236.137C223.53 236.137 226.691 192.752 230.877 144.552C231.951 130.247 232.207 115.891 231.645 101.556L228.225 73.2188Z" fill="white"/>
<path d="M233.586 77.4796C234.745 79.3392 235.676 81.3314 236.359 83.4133C236.359 83.4133 248.494 79.245 248.06 72.5626C248.06 72.5626 246.211 71.472 245.102 70.5847C245.093 70.5847 244.548 74.7993 233.586 77.4796Z" fill="#F5F5F5"/>
<path d="M233.586 77.4797C232.203 79.0779 231.043 80.8563 230.138 82.7665C228.646 81.6444 227.546 80.0793 226.997 78.2948C226.448 76.5104 226.476 74.5979 227.079 72.8307C228.162 72.3937 229.278 72.0414 230.416 71.7771C230.416 71.7771 229.538 76.0471 233.586 77.4797Z" fill="#F5F5F5"/>
<path opacity="0.2" d="M246.193 144.691L260.103 156.642L250.602 151.993L246.193 144.691Z" fill="#407BFF"/>
<path d="M260.159 76.8792C260.75 77.7017 261.194 78.3487 261.693 79.0789L263.107 81.2139C264.031 82.6434 264.928 84.0883 265.797 85.5486C267.543 88.4785 269.189 91.4731 270.704 94.6063C272.27 97.8113 273.602 101.126 274.688 104.524C275.266 106.34 275.723 108.192 276.056 110.069C276.408 112.101 276.565 114.162 276.527 116.225C276.355 120.116 275.604 123.96 274.3 127.63C273.118 131.007 271.659 134.281 269.937 137.418C268.298 140.451 266.493 143.391 264.53 146.226C263.569 147.637 262.577 149.023 261.554 150.385C261.046 151.069 260.519 151.753 259.983 152.427C259.447 153.102 258.939 153.731 258.273 154.507L248.504 146.032C248.873 145.588 249.428 144.96 249.835 144.387L251.203 142.612C252.127 141.41 252.977 140.19 253.818 138.915C255.478 136.45 256.999 133.896 258.375 131.262C259.694 128.744 260.798 126.119 261.674 123.415C262.483 121.031 262.923 118.538 262.978 116.021C262.867 113.569 262.365 111.151 261.49 108.858C260.519 106.177 259.342 103.575 257.968 101.076C256.563 98.4882 255.001 95.9187 253.347 93.414C252.506 92.1663 251.637 90.9278 250.75 89.717L249.4 87.9147C248.957 87.3417 248.476 86.6947 248.079 86.2418L260.159 76.8792Z" fill="#407BFF"/>
<path opacity="0.8" d="M260.159 76.8792C260.75 77.7017 261.194 78.3487 261.693 79.0789L263.107 81.2139C264.031 82.6434 264.928 84.0883 265.797 85.5486C267.543 88.4785 269.189 91.4731 270.704 94.6063C272.27 97.8113 273.602 101.126 274.688 104.524C275.266 106.34 275.723 108.192 276.056 110.069C276.408 112.101 276.565 114.162 276.527 116.225C276.355 120.116 275.604 123.96 274.3 127.63C273.118 131.007 271.659 134.281 269.937 137.418C268.298 140.451 266.493 143.391 264.53 146.226C263.569 147.637 262.577 149.023 261.554 150.385C261.046 151.069 260.519 151.753 259.983 152.427C259.447 153.102 258.939 153.731 258.273 154.507L248.504 146.032C248.873 145.588 249.428 144.96 249.835 144.387L251.203 142.612C252.127 141.41 252.977 140.19 253.818 138.915C255.478 136.45 256.999 133.896 258.375 131.262C259.694 128.744 260.798 126.119 261.674 123.415C262.483 121.031 262.923 118.538 262.978 116.021C262.867 113.569 262.365 111.151 261.49 108.858C260.519 106.177 259.342 103.575 257.968 101.076C256.563 98.4882 255.001 95.9187 253.347 93.414C252.506 92.1663 251.637 90.9278 250.75 89.717L249.4 87.9147C248.957 87.3417 248.476 86.6947 248.079 86.2418L260.159 76.8792Z" fill="white"/>
<path d="M247.699 92.9054C247.4 93.6032 246.868 94.1751 246.193 94.5227C245.518 94.8702 244.743 94.9716 244.002 94.8093C243.664 94.7355 243.347 94.5871 243.073 94.3748C242.8 94.1626 242.578 93.892 242.423 93.5827C242.268 93.2735 242.184 92.9334 242.177 92.5876C242.171 92.2417 242.241 91.8987 242.384 91.5837C242.683 90.8864 243.216 90.3154 243.891 89.9694C244.566 89.6235 245.341 89.5242 246.081 89.689C246.419 89.7615 246.736 89.9089 247.009 90.1202C247.283 90.3315 247.505 90.6014 247.66 90.9099C247.815 91.2185 247.899 91.5579 247.906 91.9033C247.913 92.2486 247.842 92.591 247.699 92.9054V92.9054Z" fill="#263238"/>
<path opacity="0.2" d="M247.699 92.9054C247.4 93.6032 246.868 94.1751 246.193 94.5227C245.518 94.8702 244.743 94.9716 244.002 94.8093C243.664 94.7355 243.347 94.5871 243.073 94.3748C242.8 94.1626 242.578 93.892 242.423 93.5827C242.268 93.2735 242.184 92.9334 242.177 92.5876C242.171 92.2417 242.241 91.8987 242.384 91.5837C242.683 90.8864 243.216 90.3154 243.891 89.9694C244.566 89.6235 245.341 89.5242 246.081 89.689C246.419 89.7615 246.736 89.9089 247.009 90.1202C247.283 90.3315 247.505 90.6014 247.66 90.9099C247.815 91.2185 247.899 91.5579 247.906 91.9033C247.913 92.2486 247.842 92.591 247.699 92.9054V92.9054Z" fill="white"/>
<path d="M244.658 91.5005C244.582 91.5019 244.508 91.4792 244.446 91.4358C244.369 91.3802 244.317 91.2967 244.302 91.2033C244.286 91.1099 244.308 91.0142 244.362 90.9367C251.239 81.3707 249.316 72.8676 249.298 72.7844C249.278 72.7363 249.27 72.6846 249.272 72.6328C249.274 72.581 249.288 72.5303 249.311 72.4841C249.335 72.438 249.369 72.3976 249.409 72.3655C249.45 72.3335 249.497 72.3106 249.548 72.2985C249.598 72.2864 249.651 72.2853 249.702 72.2954C249.753 72.3054 249.801 72.3263 249.843 72.3566C249.885 72.387 249.92 72.426 249.946 72.4711C249.971 72.5163 249.987 72.5664 249.991 72.6181C249.991 72.7012 252.025 81.5094 244.945 91.3526C244.913 91.3996 244.871 91.4377 244.821 91.4636C244.77 91.4895 244.715 91.5022 244.658 91.5005V91.5005Z" fill="#263238"/>
<path d="M220.684 86.6483C220.593 86.6465 220.507 86.6117 220.44 86.5504C220.374 86.4891 220.332 86.4055 220.323 86.3156C219.575 76.9252 224.547 73.4593 224.76 73.3206C224.839 73.2694 224.935 73.2505 225.028 73.2677C225.12 73.2848 225.203 73.3368 225.259 73.413C225.311 73.4927 225.33 73.59 225.311 73.6836C225.292 73.7772 225.237 73.8594 225.157 73.9121C225.111 73.9121 220.323 77.3134 221.044 86.2602C221.049 86.3543 221.017 86.4467 220.955 86.5175C220.893 86.5883 220.805 86.632 220.711 86.6391L220.684 86.6483Z" fill="#263238"/>
<path d="M246.691 92.656C246.391 93.3527 245.859 93.9236 245.184 94.2709C244.51 94.6182 243.736 94.7204 242.994 94.56C242.656 94.4877 242.337 94.3402 242.063 94.1283C241.789 93.9164 241.566 93.6456 241.411 93.3358C241.255 93.0261 241.172 92.6854 241.166 92.3389C241.16 91.9924 241.232 91.6491 241.377 91.3343C241.684 90.6456 242.22 90.0847 242.894 89.7475C243.569 89.4104 244.339 89.3179 245.074 89.4858C245.405 89.5615 245.715 89.7088 245.983 89.9174C246.251 90.1259 246.469 90.3907 246.623 90.693C246.778 90.9953 246.864 91.3278 246.875 91.667C246.887 92.0061 246.824 92.3437 246.691 92.656V92.656Z" fill="#263238"/>
<path opacity="0.4" d="M246.691 92.656C246.391 93.3527 245.859 93.9236 245.184 94.2709C244.51 94.6182 243.736 94.7204 242.994 94.56C242.656 94.4877 242.337 94.3402 242.063 94.1283C241.789 93.9164 241.566 93.6456 241.411 93.3358C241.255 93.0261 241.172 92.6854 241.166 92.3389C241.16 91.9924 241.232 91.6491 241.377 91.3343C241.684 90.6456 242.22 90.0847 242.894 89.7475C243.569 89.4104 244.339 89.3179 245.074 89.4858C245.405 89.5615 245.715 89.7088 245.983 89.9174C246.251 90.1259 246.469 90.3907 246.623 90.693C246.778 90.9953 246.864 91.3278 246.875 91.667C246.887 92.0061 246.824 92.3437 246.691 92.656V92.656Z" fill="white"/>
<path opacity="0.4" d="M245.14 92.1566C244.981 92.5238 244.7 92.8244 244.344 93.0066C243.988 93.1888 243.58 93.2412 243.189 93.1548C243.012 93.1158 242.846 93.0378 242.703 92.9265C242.56 92.8152 242.443 92.6733 242.362 92.5113C242.28 92.3493 242.236 92.1712 242.232 91.99C242.228 91.8087 242.265 91.6288 242.339 91.4634C242.499 91.0973 242.78 90.7978 243.136 90.6158C243.491 90.4339 243.899 90.3807 244.289 90.4652C244.466 90.5042 244.632 90.5822 244.776 90.6935C244.919 90.8048 245.035 90.9466 245.117 91.1086C245.198 91.2706 245.242 91.4488 245.246 91.63C245.25 91.8113 245.214 91.9912 245.14 92.1566V92.1566Z" fill="white"/>
<path d="M223.493 108.498C223.399 108.495 223.31 108.456 223.244 108.389C223.178 108.322 223.142 108.231 223.142 108.137C223.141 108.09 223.149 108.044 223.166 108C223.183 107.956 223.209 107.917 223.241 107.883C223.274 107.849 223.313 107.823 223.356 107.804C223.4 107.786 223.446 107.777 223.493 107.777C224.171 107.757 224.818 107.489 225.312 107.024C225.806 106.559 226.113 105.929 226.173 105.254L226.857 93.2383C226.915 92.3954 226.797 91.5498 226.512 90.7544C226.227 89.9591 225.78 89.2314 225.201 88.6168C224.621 88.0023 223.92 87.5144 223.143 87.1836C222.365 86.8528 221.528 86.6863 220.683 86.6946C218.906 86.7161 217.202 87.4061 215.911 88.6273C214.619 89.8485 213.835 91.5113 213.714 93.2845L213.021 105.3C212.997 105.621 213.04 105.943 213.147 106.247C213.254 106.55 213.424 106.828 213.645 107.062C213.866 107.296 214.134 107.482 214.43 107.606C214.727 107.731 215.047 107.792 215.369 107.786C215.464 107.786 215.556 107.824 215.624 107.892C215.691 107.959 215.729 108.051 215.729 108.147C215.727 108.241 215.688 108.332 215.621 108.399C215.554 108.466 215.464 108.505 215.369 108.507C214.95 108.51 214.535 108.427 214.15 108.263C213.765 108.099 213.418 107.857 213.131 107.553C212.844 107.248 212.623 106.887 212.481 106.493C212.34 106.099 212.282 105.68 212.31 105.263L213.003 93.2476C213.135 91.2928 213.999 89.4596 215.422 88.1133C216.846 86.767 218.724 86.0064 220.683 85.983C221.626 85.9743 222.561 86.1609 223.429 86.5309C224.296 86.9008 225.078 87.4462 225.725 88.1328C226.371 88.8194 226.869 89.6323 227.186 90.5205C227.504 91.4087 227.634 92.3529 227.569 93.2938L226.885 105.309C226.822 106.169 226.439 106.974 225.811 107.565C225.182 108.155 224.355 108.488 223.493 108.498Z" fill="#263238"/>
<path d="M215.961 108.137C215.961 108.71 215.637 109.182 215.314 109.182C214.99 109.182 214.741 108.71 214.778 108.137C214.815 107.564 215.101 107.083 215.434 107.083C215.767 107.083 215.998 107.555 215.961 108.137Z" fill="#263238"/>
<path d="M224.094 108.137C224.094 108.71 223.771 109.182 223.438 109.182C223.105 109.182 222.865 108.71 222.902 108.137C222.939 107.564 223.225 107.083 223.558 107.083C223.891 107.083 224.122 107.555 224.094 108.137Z" fill="#263238"/>
<path d="M149.673 35.1218L149.017 34.6504C150.949 32.0055 153.664 30.0364 156.778 29.0226C159.893 28.0089 163.247 28.0021 166.365 29.0033L166.116 29.7796C163.161 28.8326 159.983 28.8389 157.033 29.7976C154.082 30.7564 151.507 32.619 149.673 35.1218Z" fill="#407BFF"/>
<path d="M146.882 43.4402H146.069C146.111 41.9639 146.363 40.5012 146.818 39.0962L147.594 39.3457C147.163 40.6697 146.923 42.0484 146.882 43.4402Z" fill="#407BFF"/>
<path d="M190.331 44.0867C189.621 42.5182 188.6 41.1102 187.329 39.9481C186.058 38.786 184.565 37.894 182.94 37.3262C181.314 36.7584 179.59 36.5267 177.872 36.645C176.154 36.7632 174.478 37.2291 172.946 38.0144C172.175 36.5102 171.112 35.1748 169.819 34.0861C168.526 32.9975 167.029 32.1775 165.416 31.6741C163.802 31.1707 162.105 30.994 160.422 31.1542C158.74 31.3145 157.106 31.8085 155.616 32.6075C149.452 35.9163 147.298 43.754 150.505 49.9927L158.823 66.2318C159.227 67.0222 159.783 67.7252 160.459 68.3004C161.135 68.8756 161.918 69.3118 162.763 69.584C163.608 69.8561 164.498 69.959 165.383 69.8865C166.267 69.814 167.129 69.5677 167.918 69.1617L184.222 60.8434C187.195 59.3672 189.488 56.8047 190.625 53.6858C191.762 50.5669 191.657 47.1303 190.331 44.0867V44.0867Z" fill="#407BFF"/>
</svg>
