<svg width="507" height="353" viewBox="0 0 507 353" fill="none" xmlns="http://www.w3.org/2000/svg">
<path d="M423.617 54.2791L384.506 54.6602C382.668 45.6075 376.491 21.8547 382.054 15.3758C382.307 12.9374 383.491 10.6907 385.359 9.10344C387.227 7.5162 389.635 6.71073 392.082 6.8547V6.8547C398.144 -2.63688 408.241 -1.21178 415.065 4.71612C421.933 7.08661 424.523 11.2979 423.617 17.0129C428.704 21.4663 429.642 26.8845 427.359 33.0521L423.617 54.2791Z" fill="#2F2E41"/>
<path d="M419.852 78.379L391.635 74.4709L385.991 66.2205C393.765 61.0624 396.516 53.8579 392.937 44.0746L412.472 43.6404C411.557 52.3526 414.437 59.0982 422.457 63.1809L419.852 78.379Z" fill="#9F616A"/>
<path d="M384.963 332.962L383.884 347.716C383.835 348.384 383.93 349.055 384.161 349.683C384.393 350.312 384.756 350.883 385.226 351.36C385.697 351.836 386.263 352.206 386.889 352.446C387.514 352.685 388.183 352.788 388.851 352.747L396.428 352.288C396.779 352.267 397.121 352.169 397.429 352C397.738 351.832 398.006 351.597 398.214 351.314C398.422 351.03 398.565 350.704 398.633 350.359C398.7 350.013 398.691 349.657 398.606 349.316L394.4 332.49L384.963 332.962Z" fill="#E6E6E6"/>
<path d="M409.491 332.49L405.286 349.316C405.201 349.657 405.191 350.013 405.259 350.359C405.327 350.704 405.47 351.03 405.678 351.314C405.886 351.597 406.154 351.832 406.462 352C406.771 352.169 407.113 352.267 407.464 352.288L415.041 352.747C415.709 352.788 416.378 352.685 417.003 352.446C417.628 352.206 418.195 351.836 418.666 351.36C419.136 350.883 419.499 350.311 419.731 349.683C419.962 349.055 420.057 348.384 420.008 347.716L418.929 332.962L409.491 332.49Z" fill="#E6E6E6"/>
<path d="M419.418 335.01L409.194 333.984L399.015 225.15L395.168 333.633L385.123 333.274L368.192 183.029H432.875L419.418 335.01Z" fill="#407BFF"/>
<path d="M403.79 51.0223C414.579 51.0223 423.325 42.2738 423.325 31.4819C423.325 20.69 414.579 11.9414 403.79 11.9414C393.001 11.9414 384.254 20.69 384.254 31.4819C384.254 42.2738 393.001 51.0223 403.79 51.0223Z" fill="#9F616A"/>
<path d="M442.426 186.503L363.417 187.371C375.142 142.722 382.156 101.247 369.929 72.7341L389.464 63.181C398.883 73.0083 409.374 71.9952 420.72 62.3125L439.387 67.0891C436.19 104.48 437.623 144.525 442.426 186.503Z" fill="#407BFF"/>
<path d="M341.711 140.474L390.766 160.015L401.734 163.241C402.224 163.386 402.739 163.429 403.247 163.37C403.754 163.31 404.245 163.148 404.689 162.894C405.133 162.64 405.52 162.299 405.829 161.891C406.138 161.483 406.361 161.017 406.485 160.521C406.702 159.651 406.605 158.732 406.209 157.927C405.814 157.122 405.146 156.483 404.325 156.124L392.937 152.633L358.641 132.658L365.804 113.769L350.827 105.736L341.711 140.474Z" fill="#9F616A"/>
<path d="M342.145 104.867C351.478 108.509 358.902 114.725 364.719 123.105L382.952 96.6167L369.928 72.7339L342.145 104.867Z" fill="#407BFF"/>
<path d="M425.807 28.315C417.878 26.2716 410.083 25.991 402.505 28.583C397.678 30.9215 391.881 30.706 385.434 28.7792V9.28369L420.238 10.2121L425.807 28.315Z" fill="#2F2E41"/>
<path d="M390.603 117.707C389.069 117.709 387.599 118.319 386.514 119.404C385.429 120.489 384.819 121.96 384.817 123.494L387.101 171.314C387.103 172.848 387.713 174.319 388.798 175.404C389.882 176.489 391.353 177.1 392.887 177.101H418.998C420.532 177.1 422.002 176.489 423.087 175.404C424.172 174.319 424.782 172.848 424.784 171.314L427.067 123.494C427.066 121.96 426.456 120.489 425.371 119.404C424.286 118.319 422.816 117.709 421.282 117.707H390.603Z" fill="#3F3D56"/>
<path d="M464.687 136.862L421.929 153.892L418.703 155.177C418.6 155.217 418.498 155.251 418.389 155.285L407.581 158.466C406.199 158.872 404.287 157.01 403.168 155.725C402.614 155.106 402.3 154.308 402.283 153.478C402.266 152.647 402.548 151.837 403.076 151.196C403.226 151.024 403.39 150.865 403.567 150.722C403.984 150.398 404.474 150.182 404.995 150.094L415.791 147.97C416.179 147.894 416.551 147.755 416.893 147.558L421.929 144.623L448.073 129.397C448.8 128.975 449.353 128.308 449.634 127.515C449.916 126.722 449.906 125.855 449.608 125.068L444.618 111.905C444.312 111.099 444.31 110.21 444.611 109.403C444.913 108.596 445.498 107.926 446.257 107.519L454.524 103.087C454.997 102.833 455.52 102.69 456.056 102.668C456.592 102.646 457.126 102.747 457.617 102.961C458.108 103.175 458.545 103.499 458.893 103.906C459.242 104.314 459.493 104.795 459.628 105.314L466.805 132.658C467.026 133.497 466.932 134.387 466.542 135.161C466.152 135.936 465.492 136.54 464.687 136.862Z" fill="#9F616A"/>
<path d="M467.171 100.091C457.837 103.733 450.414 109.948 444.597 118.328L426.364 91.8401L439.387 67.0889L467.171 100.091Z" fill="#407BFF"/>
<path d="M416.79 48.8739C408.244 52.4297 399.283 52.2853 389.956 48.8739C392.67 44.24 388.613 40.6108 386.53 35.933L421.358 34.8977C418.695 38.9614 414.765 43.7626 416.79 48.8739Z" fill="white"/>
<path d="M420.989 35.6709L420.585 35.2672L421.156 34.6961L424.567 30.7144L425.001 31.0856L421.575 35.0833L420.989 35.6709Z" fill="white"/>
<path d="M384.144 33.2505L383.778 33.6895L387.204 36.5449L387.57 36.106L384.144 33.2505Z" fill="white"/>
<path d="M421.973 39.0284L415.977 48.4507L416.459 48.7574L422.455 39.3352L421.973 39.0284Z" fill="white"/>
<path d="M384.773 39.0275L384.291 39.3342L390.286 48.7574L390.768 48.4507L384.773 39.0275Z" fill="white"/>
<path d="M423.071 143.815V154.162L419.47 155.596C419.355 155.64 419.241 155.679 419.12 155.717L407.055 159.268C405.513 159.72 403.378 157.642 402.129 156.208C401.51 155.517 401.16 154.627 401.141 153.699C401.123 152.772 401.437 151.868 402.027 151.153C402.194 150.96 402.377 150.783 402.575 150.623C403.04 150.262 403.587 150.021 404.168 149.922L416.22 147.551C416.652 147.466 417.068 147.311 417.45 147.092L423.071 143.815Z" fill="white"/>
<path d="M428.289 106.911H426.226C426.226 77.7217 420.218 57.3802 414.362 57.3802L413.847 55.3164C419.098 55.3164 422.445 63.7824 424.329 70.8847C426.883 80.5131 428.289 93.3074 428.289 106.911Z" fill="#3F3D56"/>
<path d="M380.835 99.6878H378.772C378.772 72.9551 384.822 56.3484 393.73 56.3484L393.215 58.4122C387.053 58.4122 380.835 71.175 380.835 99.6878Z" fill="#3F3D56"/>
<path d="M427.258 112.586C430.106 112.586 432.416 110.276 432.416 107.427C432.416 104.577 430.106 102.267 427.258 102.267C424.409 102.267 422.1 104.577 422.1 107.427C422.1 110.276 424.409 112.586 427.258 112.586Z" fill="#3F3D56"/>
<path d="M372.582 112.07H370.519C370.519 104.674 374.684 98.6558 379.804 98.6558V100.72C375.822 100.72 372.582 105.811 372.582 112.07Z" fill="#3F3D56"/>
<path d="M389.088 112.07H387.025C387.025 105.811 383.785 100.72 379.803 100.72V98.6558C384.923 98.6558 389.088 104.674 389.088 112.07Z" fill="#3F3D56"/>
<path d="M388.056 114.65C389.196 114.65 390.12 113.726 390.12 112.586C390.12 111.446 389.196 110.522 388.056 110.522C386.917 110.522 385.993 111.446 385.993 112.586C385.993 113.726 386.917 114.65 388.056 114.65Z" fill="#3F3D56"/>
<path d="M371.551 114.65C372.69 114.65 373.614 113.726 373.614 112.586C373.614 111.446 372.69 110.522 371.551 110.522C370.411 110.522 369.487 111.446 369.487 112.586C369.487 113.726 370.411 114.65 371.551 114.65Z" fill="#3F3D56"/>
<path d="M122.908 43.2308L86.672 49.3687C85.7768 49.5215 84.8569 49.3367 84.0901 48.8501C83.3233 48.3634 82.7643 47.6096 82.5212 46.7344C79.9032 37.2831 74.4297 24.9534 79.7439 18.7639C80.0146 16.16 81.2789 13.7609 83.2736 12.066C85.2682 10.3711 87.8395 9.51097 90.4522 9.6647C96.9255 -0.4708 107.708 1.05098 114.995 7.38105C122.329 9.91235 125.094 14.4094 124.127 20.512C127.295 23.2861 128.956 26.4108 129.307 29.8403C129.473 31.7488 129.23 33.6708 128.595 35.478C127.959 37.2852 126.946 38.9361 125.622 40.3204L122.908 43.2308Z" fill="#2F2E41"/>
<path d="M117.274 71.7658L89.1836 70.1129C91.9366 63.7926 93.0362 57.7065 91.9376 51.9316H112.868C112.821 56.3656 115.026 64.0355 117.274 71.7658Z" fill="#9F616A"/>
<path d="M83.4604 331.403L82.3083 347.158C82.2561 347.871 82.357 348.587 82.6042 349.258C82.8514 349.929 83.2391 350.54 83.7415 351.048C84.2438 351.557 84.849 351.953 85.5167 352.208C86.1843 352.464 86.8989 352.574 87.6124 352.53L95.7028 352.04C96.0777 352.017 96.443 351.912 96.7726 351.732C97.1023 351.553 97.3883 351.302 97.6104 350.999C97.8324 350.696 97.9851 350.348 98.0574 349.979C98.1297 349.611 98.12 349.231 98.0289 348.866L93.5381 330.899L83.4604 331.403Z" fill="#E6E6E6"/>
<path d="M109.653 330.899L105.162 348.866C105.071 349.231 105.061 349.611 105.133 349.979C105.206 350.348 105.358 350.696 105.58 350.999C105.802 351.302 106.088 351.553 106.418 351.732C106.748 351.912 107.113 352.017 107.488 352.04L115.578 352.53C116.292 352.574 117.006 352.464 117.674 352.208C118.342 351.953 118.947 351.557 119.449 351.048C119.952 350.54 120.339 349.929 120.587 349.258C120.834 348.587 120.935 347.871 120.882 347.158L119.73 331.403L109.653 330.899Z" fill="#E6E6E6"/>
<path d="M120.253 333.59L109.335 332.494L98.4656 216.276L94.3576 332.119L83.6312 331.735L65.5522 171.298H134.624L120.253 333.59Z" fill="#407BFF"/>
<path d="M102.955 58.6199C114.476 58.6199 123.815 49.2778 123.815 37.7538C123.815 26.2298 114.476 16.8877 102.955 16.8877C91.4338 16.8877 82.0942 26.2298 82.0942 37.7538C82.0942 49.2778 91.4338 58.6199 102.955 58.6199Z" fill="#9F616A"/>
<path d="M126.466 27.7858C117.999 26.3109 109.675 26.1084 101.583 27.9791C96.4284 29.667 90.2382 29.5115 83.354 28.1208V14.0496L120.519 14.7196L126.466 27.7858Z" fill="#2F2E41"/>
<path d="M116.837 54.4962C107.712 58.2932 98.1426 58.139 88.1825 54.4962C91.0807 49.5479 86.7485 45.6724 84.5244 40.6773L121.715 39.5718C118.871 43.9112 114.674 49.0381 116.837 54.4962Z" fill="white"/>
<path d="M81.9639 37.8276L81.5981 38.2666L85.256 41.3156L85.6218 40.8767L81.9639 37.8276Z" fill="white"/>
<path d="M122.389 43.9926L115.986 54.0542L116.468 54.3609L122.871 44.2994L122.389 43.9926Z" fill="white"/>
<path d="M82.6307 43.9922L82.1489 44.2988L88.5506 54.3613L89.0323 54.0547L82.6307 43.9922Z" fill="white"/>
<path d="M63.296 132.921L47.3228 123.004L60.9451 83.0961C62.4644 78.9781 65.3745 75.5205 69.1722 73.3213L73.7611 70.6638L74.1601 110.923L63.296 132.921Z" fill="#407BFF"/>
<path d="M132.339 152.303L129.976 132.056C129.85 121.369 131.667 111.037 136.001 101.517L138.204 71.7657L113.969 61.8486C113.895 62.3426 113.832 62.8363 113.761 63.3302L102.402 69.011L91.3251 66.4927L91.3864 62.9506L69.3544 72.8676C76.6404 106.75 72.6665 141.935 60.1372 183.495L89.1623 191.433L89.4037 177.493L115.271 175.644C115.538 180.167 115.752 184.61 115.876 188.954C130.473 194.329 130.974 194.24 144.273 186.544C138.977 175.406 134.783 163.816 132.339 152.303Z" fill="#407BFF"/>
<path d="M169.6 127.962L154.729 123.004L130.941 95.304L138.204 71.7661L171.253 118.046L169.6 127.962Z" fill="#407BFF"/>
<path d="M122.993 149.407C123.236 150.475 123.893 151.403 124.819 151.988C125.745 152.572 126.866 152.765 127.934 152.525L140.558 149.665L138.734 141.605L126.109 144.464C125.041 144.707 124.112 145.363 123.528 146.29C122.943 147.217 122.751 148.338 122.993 149.407V149.407Z" fill="#E6E6E6"/>
<path d="M134.349 140.083L141.51 153.306C153.553 149.946 163.991 139.354 174.007 126.861L171.253 118.045L154.178 122.453L134.349 140.083Z" fill="#407BFF"/>
<path d="M40.9883 98.6067L54.7344 101.062L86.1541 145.749L69.4625 141.82L40.9883 98.6067Z" fill="#E6E6E6"/>
<path d="M38.55 98.0596C38.3405 98.0627 38.1358 98.1221 37.9571 98.2315C37.7784 98.341 37.6324 98.4964 37.5344 98.6816C37.4363 98.8667 37.3898 99.0749 37.3997 99.2842C37.4096 99.4935 37.4756 99.6963 37.5907 99.8714L66.9598 144.444C67.1237 144.693 67.3768 144.87 67.6671 144.938L81.3317 148.154C81.5621 148.208 81.8035 148.191 82.0239 148.105C82.2444 148.018 82.4334 147.867 82.566 147.671C82.6986 147.475 82.7684 147.243 82.7662 147.006C82.764 146.77 82.6899 146.539 82.5537 146.346L50.3083 100.484C50.2208 100.359 50.1096 100.253 49.981 100.171C49.8524 100.089 49.7089 100.033 49.5587 100.007L38.7703 98.0795C38.6976 98.0664 38.6239 98.0598 38.55 98.0596Z" fill="#3F3D56"/>
<path d="M56.8706 129.928L57.6869 138.152L70.5672 136.873C71.6574 136.765 72.6601 136.228 73.3545 135.38C74.0489 134.533 74.3782 133.444 74.27 132.353C74.1618 131.263 73.6249 130.26 72.7775 129.565C71.9301 128.871 70.8415 128.541 69.7512 128.649L56.8706 129.928Z" fill="#E6E6E6"/>
<path d="M45.6704 128.976C45.6891 131.78 46.8151 134.463 48.8029 136.44C50.7907 138.418 53.4792 139.529 56.2827 139.532H58.4007L59.9425 126.68L47.176 122.082L45.6704 128.976Z" fill="#407BFF"/>
<path d="M120.698 40.9935L120.294 40.5897L120.904 39.9798L124.547 35.7268L124.98 36.098L121.322 40.367L120.698 40.9935Z" fill="white"/>
<path d="M507 351.858H0V353H507V351.858Z" fill="#3F3D56"/>
<path d="M193.551 351.287H313.449V205.818C313.449 198.116 305.864 191.849 296.541 191.849H210.459C201.136 191.849 193.551 198.116 193.551 205.818V351.287Z" fill="#E6E6E6"/>
<path d="M202.686 345.271H304.314V221.97C304.314 215.441 297.885 210.129 289.983 210.129H217.018C209.115 210.129 202.686 215.441 202.686 221.97V345.271Z" fill="white"/>
<path d="M192.645 180.528C189.682 180.528 187.271 182.52 187.271 184.969V197.786C187.271 200.235 189.682 202.227 192.645 202.227H314.356C317.319 202.227 319.73 200.235 319.73 197.786V184.969C319.73 182.52 317.319 180.528 314.356 180.528H192.645Z" fill="#3F3D56"/>
<path d="M217.634 329.461C216.242 329.465 214.909 330.019 213.925 331.004C212.941 331.988 212.387 333.321 212.383 334.713V334.713C212.387 336.105 212.941 337.438 213.925 338.422C214.909 339.406 216.242 339.961 217.634 339.965H227.462V329.461H217.634Z" fill="#3F3D56"/>
<path d="M236.483 329.461H226.923V339.965H236.483C237.874 339.961 239.207 339.406 240.191 338.422C241.175 337.438 241.729 336.105 241.733 334.713V334.713C241.729 333.321 241.175 331.988 240.191 331.004C239.207 330.019 237.874 329.465 236.483 329.461V329.461Z" fill="#407BFF"/>
<path opacity="0.2" d="M239.909 330.747C240.737 331.697 241.194 332.914 241.195 334.174V334.174C241.191 335.566 240.636 336.9 239.652 337.884C238.668 338.868 237.335 339.422 235.944 339.427H226.923V339.965H236.483C237.874 339.961 239.207 339.406 240.191 338.422C241.175 337.438 241.729 336.105 241.733 334.713C241.732 333.96 241.568 333.215 241.254 332.531C240.939 331.847 240.48 331.238 239.909 330.747V330.747Z" fill="black"/>
<path d="M261.985 250.349C261.028 249.339 259.71 248.749 258.319 248.708C256.928 248.667 255.578 249.178 254.563 250.129V250.129C253.553 251.087 252.963 252.405 252.922 253.796C252.881 255.187 253.392 256.538 254.344 257.554L261.085 264.708L268.727 257.502L261.985 250.349Z" fill="#3F3D56"/>
<path d="M274.914 264.068L268.357 257.11L260.716 264.316L267.273 271.273C268.23 272.283 269.548 272.873 270.939 272.914C272.33 272.955 273.68 272.444 274.695 271.493V271.493C275.705 270.535 276.295 269.217 276.336 267.826C276.377 266.434 275.866 265.084 274.914 264.068V264.068Z" fill="#407BFF"/>
<path opacity="0.2" d="M276.329 267.444C276.206 268.699 275.634 269.866 274.718 270.731V270.731C273.703 271.683 272.352 272.194 270.961 272.153C269.571 272.112 268.253 271.522 267.295 270.512L261.108 263.946L260.716 264.316L267.273 271.274C268.23 272.283 269.548 272.873 270.939 272.914C272.33 272.955 273.68 272.444 274.695 271.493C275.242 270.975 275.672 270.345 275.954 269.647C276.235 268.948 276.364 268.197 276.329 267.444V267.444Z" fill="black"/>
<path d="M234.009 266.911C233.051 265.901 231.733 265.311 230.343 265.27C228.952 265.229 227.601 265.74 226.586 266.691V266.691C225.576 267.649 224.987 268.967 224.946 270.358C224.905 271.75 225.416 273.1 226.367 274.116L233.109 281.27L240.75 274.064L234.009 266.911Z" fill="#3F3D56"/>
<path d="M246.938 280.63L240.381 273.672L232.739 280.878L239.296 287.835C240.254 288.845 241.571 289.435 242.962 289.476C244.353 289.517 245.703 289.006 246.719 288.055V288.055C247.728 287.097 248.318 285.779 248.359 284.388C248.4 282.996 247.889 281.646 246.938 280.63V280.63Z" fill="#407BFF"/>
<path opacity="0.2" d="M248.352 284.006C248.229 285.26 247.657 286.428 246.741 287.293V287.293C245.726 288.245 244.375 288.756 242.985 288.715C241.594 288.674 240.276 288.084 239.319 287.074L233.131 280.508L232.739 280.878L239.296 287.835C240.254 288.845 241.571 289.435 242.962 289.476C244.353 289.517 245.703 289.006 246.719 288.054V288.054C247.266 287.537 247.695 286.907 247.977 286.209C248.259 285.51 248.387 284.759 248.352 284.006Z" fill="black"/>
<path d="M261.985 282.33C261.028 281.32 259.71 280.73 258.319 280.689C256.928 280.648 255.578 281.159 254.563 282.111V282.111C253.553 283.069 252.963 284.387 252.922 285.778C252.881 287.169 253.392 288.52 254.344 289.536L261.085 296.689L268.727 289.484L261.985 282.33Z" fill="#3F3D56"/>
<path d="M274.914 296.05L268.357 289.092L260.716 296.297L267.273 303.255C268.23 304.265 269.548 304.855 270.939 304.896C272.33 304.937 273.68 304.426 274.695 303.474V303.474C275.705 302.516 276.295 301.198 276.336 299.807C276.377 298.416 275.866 297.065 274.914 296.05V296.05Z" fill="#407BFF"/>
<path opacity="0.2" d="M276.329 299.426C276.206 300.68 275.634 301.847 274.718 302.713C273.703 303.664 272.352 304.175 270.961 304.134C269.571 304.093 268.253 303.503 267.295 302.493L261.108 295.928L260.716 296.297L267.273 303.255C268.23 304.265 269.548 304.855 270.939 304.896C272.33 304.937 273.68 304.426 274.695 303.474V303.474C275.242 302.956 275.672 302.327 275.954 301.628C276.235 300.93 276.364 300.178 276.329 299.426V299.426Z" fill="black"/>
<path d="M279.052 315.15C280.05 314.18 280.624 312.854 280.648 311.463C280.672 310.071 280.145 308.727 279.181 307.723V307.723C278.211 306.725 276.886 306.151 275.495 306.127C274.104 306.103 272.76 306.63 271.756 307.594L264.687 314.424L271.983 321.979L279.052 315.15Z" fill="#3F3D56"/>
<path d="M265.494 328.248L272.37 321.605L265.074 314.05L258.199 320.692C257.201 321.662 256.627 322.988 256.603 324.379C256.579 325.771 257.106 327.115 258.07 328.119V328.119C259.039 329.117 260.364 329.691 261.755 329.715C263.147 329.739 264.491 329.212 265.494 328.248V328.248Z" fill="#407BFF"/>
<path opacity="0.2" d="M262.136 329.704C260.881 329.596 259.707 329.038 258.831 328.132V328.132C257.868 327.128 257.34 325.784 257.364 324.392C257.388 323.001 257.962 321.675 258.96 320.706L265.448 314.437L265.074 314.05L258.199 320.692C257.201 321.662 256.627 322.988 256.603 324.379C256.579 325.771 257.106 327.115 258.07 328.119V328.119C258.594 328.66 259.228 329.082 259.93 329.355C260.632 329.629 261.385 329.747 262.136 329.704Z" fill="black"/>
<path d="M241.369 298.588C242.367 297.618 242.941 296.292 242.965 294.901C242.989 293.509 242.462 292.165 241.498 291.161C240.529 290.163 239.204 289.589 237.813 289.565C236.422 289.541 235.077 290.068 234.074 291.032L227.004 297.862L234.3 305.417L241.369 298.588Z" fill="#3F3D56"/>
<path d="M227.812 311.686L234.688 305.043L227.392 297.488L220.517 304.131C219.519 305.1 218.945 306.426 218.921 307.817C218.897 309.209 219.424 310.553 220.388 311.557V311.557C221.357 312.555 222.682 313.129 224.073 313.153C225.464 313.178 226.809 312.65 227.812 311.686V311.686Z" fill="#407BFF"/>
<path opacity="0.2" d="M224.454 313.142C223.199 313.034 222.025 312.476 221.149 311.57C220.185 310.567 219.658 309.222 219.682 307.83C219.706 306.439 220.28 305.114 221.278 304.144L227.766 297.875L227.392 297.488L220.517 304.131C219.519 305.1 218.945 306.426 218.921 307.817C218.897 309.209 219.424 310.553 220.388 311.557V311.557C220.912 312.098 221.546 312.52 222.248 312.793C222.95 313.067 223.702 313.186 224.454 313.142V313.142Z" fill="black"/>
<path d="M295.038 278.599C296.036 277.629 296.61 276.304 296.634 274.912C296.658 273.521 296.131 272.176 295.167 271.172V271.172C294.198 270.174 292.873 269.6 291.482 269.576C290.09 269.552 288.746 270.08 287.743 271.043L280.673 277.873L287.969 285.429L295.038 278.599Z" fill="#3F3D56"/>
<path d="M281.481 291.698L288.357 285.055L281.061 277.499L274.185 284.142C273.188 285.112 272.614 286.437 272.59 287.829C272.566 289.22 273.093 290.565 274.057 291.569V291.569C275.026 292.567 276.351 293.141 277.742 293.165C279.133 293.189 280.478 292.662 281.481 291.698Z" fill="#407BFF"/>
<path opacity="0.2" d="M278.123 293.153C276.868 293.046 275.694 292.487 274.818 291.582V291.582C273.854 290.578 273.327 289.233 273.351 287.842C273.375 286.45 273.949 285.125 274.947 284.155L281.435 277.887L281.061 277.499L274.185 284.142C273.188 285.112 272.614 286.437 272.59 287.829C272.566 289.22 273.093 290.565 274.057 291.569V291.569C274.581 292.11 275.215 292.531 275.917 292.805C276.619 293.078 277.371 293.197 278.123 293.153Z" fill="black"/>
<path d="M283.11 320.023C282.153 319.013 280.835 318.423 279.444 318.382C278.053 318.341 276.703 318.852 275.688 319.804V319.804C274.678 320.761 274.088 322.08 274.047 323.471C274.006 324.862 274.517 326.213 275.469 327.228L282.21 334.382L289.852 327.177L283.11 320.023Z" fill="#3F3D56"/>
<path d="M296.039 333.742L289.482 326.784L281.841 333.99L288.398 340.947C289.355 341.957 290.673 342.547 292.064 342.588C293.455 342.629 294.805 342.118 295.82 341.167V341.167C296.83 340.209 297.42 338.891 297.461 337.5C297.502 336.109 296.991 334.758 296.039 333.742Z" fill="#407BFF"/>
<path opacity="0.2" d="M297.454 337.118C297.331 338.373 296.759 339.54 295.843 340.405V340.405C294.828 341.357 293.477 341.868 292.086 341.827C290.696 341.786 289.378 341.196 288.42 340.186L282.233 333.62L281.841 333.99L288.398 340.948C289.355 341.957 290.673 342.547 292.064 342.588C293.455 342.63 294.805 342.118 295.82 341.167V341.167C296.367 340.649 296.797 340.019 297.079 339.321C297.36 338.622 297.489 337.871 297.454 337.118V337.118Z" fill="black"/>
<path d="M245.998 319.452C245.041 318.442 243.723 317.852 242.332 317.811C240.942 317.77 239.591 318.281 238.576 319.232V319.232C237.566 320.19 236.976 321.508 236.935 322.899C236.894 324.291 237.405 325.641 238.357 326.657L245.098 333.811L252.74 326.605L245.998 319.452Z" fill="#3F3D56"/>
<path d="M258.928 333.171L252.371 326.213L244.729 333.419L251.286 340.376C252.243 341.386 253.561 341.976 254.952 342.017C256.343 342.058 257.693 341.547 258.708 340.596V340.596C259.718 339.638 260.308 338.32 260.349 336.929C260.39 335.537 259.879 334.187 258.928 333.171V333.171Z" fill="#407BFF"/>
<path opacity="0.2" d="M260.342 336.547C260.219 337.802 259.647 338.969 258.731 339.834V339.834C257.716 340.786 256.365 341.297 254.974 341.256C253.584 341.215 252.266 340.625 251.308 339.615L245.121 333.049L244.729 333.419L251.286 340.377C252.243 341.386 253.561 341.976 254.952 342.017C256.343 342.059 257.693 341.547 258.708 340.596V340.596C259.256 340.078 259.685 339.448 259.967 338.75C260.249 338.051 260.377 337.3 260.342 336.547Z" fill="black"/>
<path d="M256.445 300.609C256.445 302.355 255.842 304.048 254.739 305.401C253.635 306.753 252.097 307.683 250.387 308.032C249.387 308.234 248.357 308.234 247.358 308.032C245.648 307.683 244.11 306.753 243.007 305.4C241.903 304.048 241.3 302.355 241.3 300.609C241.3 298.863 241.903 297.171 243.007 295.818C244.11 294.465 245.648 293.536 247.358 293.186C248.357 292.984 249.387 292.984 250.387 293.186C252.097 293.535 253.635 294.465 254.739 295.818C255.842 297.17 256.445 298.863 256.445 300.609V300.609Z" fill="#407BFF"/>
<path opacity="0.2" d="M250.387 293.186V308.032C249.387 308.234 248.357 308.234 247.358 308.032V293.186C248.357 292.984 249.387 292.984 250.387 293.186Z" fill="black"/>
<path d="M259.871 270.341C259.871 272.087 259.268 273.78 258.164 275.132C257.06 276.485 255.523 277.415 253.813 277.764C252.813 277.966 251.783 277.966 250.784 277.764C249.073 277.414 247.536 276.485 246.432 275.132C245.329 273.779 244.726 272.087 244.726 270.341C244.726 268.595 245.329 266.902 246.432 265.55C247.536 264.197 249.073 263.267 250.784 262.918C251.783 262.716 252.813 262.716 253.813 262.918C255.523 263.267 257.06 264.197 258.164 265.549C259.268 266.902 259.871 268.595 259.871 270.341V270.341Z" fill="#407BFF"/>
<path opacity="0.2" d="M253.813 262.918V277.764C252.813 277.966 251.783 277.966 250.784 277.764V262.918C251.783 262.716 252.813 262.716 253.813 262.918Z" fill="black"/>
<path d="M259.871 313.745C259.871 315.491 259.268 317.183 258.164 318.536C257.06 319.889 255.523 320.818 253.813 321.168C252.813 321.37 251.783 321.37 250.784 321.168C249.073 320.818 247.536 319.888 246.432 318.536C245.329 317.183 244.726 315.491 244.726 313.744C244.726 311.998 245.329 310.306 246.432 308.953C247.536 307.601 249.073 306.671 250.784 306.321C251.783 306.119 252.813 306.119 253.813 306.321C255.523 306.671 257.06 307.6 258.164 308.953C259.268 310.306 259.871 311.998 259.871 313.745V313.745Z" fill="#407BFF"/>
<path opacity="0.2" d="M253.813 306.321V321.168C252.813 321.37 251.783 321.37 250.784 321.168V306.321C251.783 306.119 252.813 306.119 253.813 306.321Z" fill="black"/>
<path d="M278.712 334.875C278.712 336.621 278.11 338.314 277.006 339.667C275.902 341.019 274.364 341.949 272.654 342.298C271.654 342.5 270.625 342.5 269.625 342.298C267.915 341.949 266.378 341.019 265.274 339.666C264.17 338.314 263.567 336.621 263.567 334.875C263.567 333.129 264.17 331.437 265.274 330.084C266.378 328.731 267.915 327.802 269.625 327.452C270.625 327.25 271.654 327.25 272.654 327.452C274.364 327.801 275.902 328.731 277.006 330.084C278.11 331.436 278.712 333.129 278.712 334.875V334.875Z" fill="#407BFF"/>
<path opacity="0.2" d="M272.654 327.452V342.298C271.654 342.5 270.624 342.5 269.625 342.298V327.452C270.624 327.25 271.654 327.25 272.654 327.452Z" fill="black"/>
<path d="M295.356 295.997C296.613 297.209 297.413 298.817 297.62 300.551C297.828 302.285 297.43 304.037 296.495 305.511C295.946 306.371 295.232 307.113 294.393 307.693C292.954 308.682 291.218 309.144 289.479 309C287.739 308.856 286.102 308.116 284.845 306.904C283.588 305.693 282.789 304.084 282.581 302.35C282.374 300.616 282.771 298.864 283.706 297.39C284.255 296.53 284.969 295.788 285.808 295.209C287.247 294.219 288.983 293.757 290.723 293.901C292.462 294.044 294.099 294.785 295.356 295.997V295.997Z" fill="#407BFF"/>
<path opacity="0.2" d="M285.809 295.208L296.495 305.511C295.947 306.371 295.232 307.113 294.393 307.693L283.707 297.39C284.255 296.53 284.97 295.788 285.809 295.208V295.208Z" fill="black"/>
<path d="M297.639 312.559C298.897 313.771 299.697 315.379 299.904 317.113C300.112 318.847 299.714 320.599 298.778 322.073C298.23 322.933 297.515 323.675 296.676 324.255C295.238 325.244 293.502 325.706 291.762 325.562C290.023 325.418 288.386 324.678 287.129 323.466C285.872 322.255 285.072 320.646 284.865 318.912C284.657 317.178 285.055 315.426 285.99 313.952C286.538 313.092 287.253 312.35 288.092 311.771C289.53 310.781 291.266 310.319 293.006 310.463C294.746 310.606 296.383 311.347 297.639 312.559V312.559Z" fill="#407BFF"/>
<path opacity="0.2" d="M288.092 311.771L298.779 322.073C298.23 322.933 297.516 323.675 296.677 324.255L285.99 313.952C286.539 313.092 287.253 312.35 288.092 311.771V311.771Z" fill="black"/>
<path d="M229.697 316.557C230.954 317.768 231.754 319.377 231.962 321.111C232.169 322.844 231.772 324.597 230.836 326.071C230.288 326.931 229.573 327.673 228.734 328.252C227.295 329.242 225.56 329.703 223.82 329.56C222.08 329.416 220.443 328.676 219.187 327.464C217.93 326.252 217.13 324.643 216.922 322.91C216.715 321.176 217.112 319.424 218.048 317.95C218.596 317.089 219.311 316.348 220.15 315.768C221.588 314.779 223.324 314.317 225.064 314.46C226.804 314.604 228.44 315.345 229.697 316.557V316.557Z" fill="#407BFF"/>
<path opacity="0.2" d="M220.15 315.768L230.836 326.071C230.288 326.931 229.573 327.673 228.734 328.252L218.048 317.95C218.596 317.089 219.311 316.348 220.15 315.768V315.768Z" fill="black"/>
<path opacity="0.2" d="M205.255 180.528H202.4V201.659H205.255V180.528Z" fill="black"/>
<path opacity="0.2" d="M221.813 180.528H218.958V201.659H221.813V180.528Z" fill="black"/>
<path opacity="0.2" d="M238.37 180.528H235.515V201.659H238.37V180.528Z" fill="black"/>
<path opacity="0.2" d="M254.927 180.528H252.073V201.659H254.927V180.528Z" fill="black"/>
<path opacity="0.2" d="M271.485 180.528H268.63V201.659H271.485V180.528Z" fill="black"/>
<path opacity="0.2" d="M288.042 180.528H285.188V201.659H288.042V180.528Z" fill="black"/>
<path opacity="0.2" d="M304.6 180.528H301.745V201.659H304.6V180.528Z" fill="black"/>
</svg>
