<svg version="1.1" xmlns="http://www.w3.org/2000/svg" xmlns:xlink="http://www.w3.org/1999/xlink" viewBox="0 0 172 172"><g fill="none" fill-rule="nonzero" stroke="none" stroke-width="1" stroke-linecap="butt" stroke-linejoin="miter" stroke-miterlimit="10" stroke-dasharray="" stroke-dashoffset="0" font-family="none" font-weight="none" font-size="none" text-anchor="none" style="mix-blend-mode: normal"><path d="M0,172v-172h172v172z" fill="none"></path><g fill="#dd7678"><path d="M86,17.2c-25.5764,0 -47.34497,6.52176 -55.69844,11.34349c-2.36213,1.3588 -3.62123,4.05167 -3.43776,6.76354l6.27083,94.17448c0.52173,7.79733 6.99485,13.85183 14.80365,13.85183h76.11224c7.81453,0 14.29311,-6.05449 14.81484,-13.85183l6.27083,-94.17448c0.17773,-2.7176 -1.08136,-5.40474 -3.43776,-6.76354c-8.36493,-4.82173 -30.12777,-11.34349 -55.69844,-11.34349zM86,34.4c16.8904,0 31.49723,4.82245 38.53203,7.61458c2.67173,1.06067 4.33297,3.71771 4.12083,6.58438l-2.83308,37.82656c-0.22933,2.9928 -2.7236,5.30781 -5.72213,5.30781h-68.20651c-2.99853,0 -5.48734,-2.31501 -5.71094,-5.30781l-2.83307,-37.82656c-0.21213,-2.86667 1.4491,-5.51824 4.12083,-6.57318c7.0348,-2.79787 21.6359,-7.62578 38.53203,-7.62578zM86,45.86667c0,0 -12.03776,14.33558 -12.03776,22.36224c0,6.65067 5.38709,12.03776 12.03776,12.03776c6.65067,0 12.03776,-5.38709 12.03776,-12.03776c0,-8.02667 -12.03776,-22.36224 -12.03776,-22.36224zM56.66146,102.19219h11.46666c3.1648,0 5.73333,2.56853 5.73333,5.73333c0,3.1648 -2.5628,5.73333 -5.73333,5.73333h-11.46666c-3.1648,0 -5.73333,-2.56853 -5.73333,-5.73333c0,-3.1648 2.56853,-5.73333 5.73333,-5.73333zM102.52812,102.19219h11.46667c3.1648,0 5.73333,2.56853 5.73333,5.73333c0,3.1648 -2.5628,5.73333 -5.73333,5.73333h-11.46667c-3.16479,0 -5.73333,-2.56853 -5.73333,-5.73333c0,-3.1648 2.56854,-5.73333 5.73333,-5.73333zM80.26667,154.8v17.2h11.46667v-17.2z"></path></g></g></svg>